<?xml version="1.0" standalone="no"?>
<!DOCTYPE svg PUBLIC "-//W3C//DTD SVG 1.1//EN" "http://www.w3.org/Graphics/SVG/1.1/DTD/svg11.dtd" >
<svg xmlns="http://www.w3.org/2000/svg">
<metadata>
This is a custom SVG webfont generated by Font Squirrel.
Copyright   : Manfred Klein015          mwkleintonlinede015                     wwwmanfredkleinde                                                                                    
</metadata>
<defs>
<font id="KL1MonoCaseRegular" horiz-adv-x="2048" >
<font-face units-per-em="2048" ascent="1638" descent="-410" />
<missing-glyph horiz-adv-x="1024" />
<glyph unicode=" "  horiz-adv-x="1024" />
<glyph unicode="&#x09;" horiz-adv-x="1024" />
<glyph unicode="&#xa0;" horiz-adv-x="1024" />
<glyph unicode="!" d="M-2 387h911q14 -78 30.5 -154.5t29.5 -150.5h37v-92h-117v-279h117v-329h36v329h117v279h-117v92h37q12 74 28.5 150.5t31.5 154.5h911v39h-905q6 41 10 82t4 82v2v555h-117v285h-36v-285h-117v-555q0 -41 4 -83t10 -83h-905v-39z" />
<glyph unicode="&#x22;" d="M-2 387h1008v-1005h36v1005h1008v39h-1008v1006h-36v-1006h-1008v-39zM770 588h188v559h-188v-559zM1085 588h193v559h-193v-559z" />
<glyph unicode="#" d="M-2 387h737l-18 -117h-195v-176h170l-55 -381h192l54 381h123v-712h36v331h172l54 381h196v176h-172l19 117h739v39h-733l14 98h195v178h-170l55 381h-192l-56 -381h-121v730h-36v-349h-172l-56 -381h-194v-178h172l-15 -98h-743v-39zM907 270l19 117h80v-117h-99z M932 426l14 98h60v-98h-74zM971 702l35 236v-236h-35zM1042 94h35l-35 -225v225zM1042 270v117h76l-16 -117h-60zM1042 426v98h97l-15 -98h-82z" />
<glyph unicode="$" d="M-2 387h774q39 -18 82 -34.5t88 -33.5v-405q-72 14 -130 56t-89 108l-209 -158q76 -102 188.5 -164.5t239.5 -66.5v-238h64v-69h36v69h78v238q86 2 162 38.5t131 97t88 137.5t33 163q0 90 -26.5 152.5t-71.5 109.5h614v39h-659q-55 41 -124 69.5t-147 51.5v334 q68 -10 119 -53.5t86 -98.5l184 145q-31 49 -73.5 90.5t-95 72t-108.5 48t-114 21.5v223h-76v103h-36v-103h-64v-223q-80 -2 -152.5 -30.5t-128 -79t-88 -120t-32.5 -151.5q0 -115 44 -183.5t115 -115.5h-702v-39zM813 743q0 59 38 95t95 47h-2v-2v-281q-57 14 -94 44.5 t-37 96.5zM1118 -86v346q59 -16 102.5 -56t43.5 -106t-42 -115t-102 -67h2z" />
<glyph unicode="%" d="M-2 387h932l-414 -749h176l314 567v-823h36v892l64 113h219q-90 -41 -134 -130t-44 -204q0 -76 20.5 -142.5t61.5 -115.5t101.5 -76.5t142.5 -27.5t142 27.5t101 76.5t61.5 114.5t20.5 143.5q0 115 -44 204t-134 130h430v39h-924l404 733h-176l-312 -563v836h-36v-908 l-56 -98h-233q92 41 138 130t46 206q0 76 -20.5 142.5t-61.5 115.5t-101.5 77.5t-142.5 28.5t-142 -28.5t-101 -77.5t-61.5 -115.5t-20.5 -142.5q0 -117 46 -206t138 -130h-436v-39zM449 762h2q0 33 4 69.5t16 68.5t36.5 52.5t67.5 20.5t68 -20.5t37 -51.5t16 -67.5t4 -69.5 t-4 -71t-16 -69.5t-37 -52t-68 -20.5t-68.5 20.5t-37.5 52t-16 68.5t-4 70zM1348 53q0 33 4 70t16 68.5t37 52t68 20.5t67.5 -20.5t36.5 -52t16 -68.5t4 -70t-4 -69.5t-16 -68.5t-36.5 -52.5t-67.5 -20.5t-68 20.5t-37 52.5t-16 68.5t-4 69.5z" />
<glyph unicode="&#x26;" d="M-2 387h569q-53 -59 -87 -130t-31 -153q0 -98 34.5 -174.5t96 -131t144.5 -82t177 -27.5q47 0 105 10v-317h36v325q109 27 209 90q47 -47 105.5 -65.5t126.5 -18.5q29 0 59.5 2t59.5 11v194q-63 -14 -103.5 2.5t-87.5 57.5q33 33 62.5 83t53 106t39 113.5t19.5 104.5h465 v39h-952l-6 12q57 25 106 53.5t85 68.5t56.5 90t20.5 118q0 70 -24.5 126t-67.5 95t-100.5 60.5t-125.5 21.5v361h-36v-363q-68 -4 -126.5 -30.5t-102.5 -69.5t-68.5 -102.5t-24.5 -129.5q0 -59 20.5 -112.5t49.5 -100.5q-80 -37 -148 -98h-608v-39zM696 115q-2 78 50.5 140 t125.5 85l134 -197v-227q-23 -6 -45.5 -10t-45.5 -4q-94 0 -156.5 57.5t-62.5 155.5zM928 770q0 39 20.5 67.5t57.5 39.5v-256q-4 0 -6.5 -1.5t-6.5 -1.5q-27 35 -45 72t-18 80h-2zM1042 -66v152l72 -102q-37 -34 -72 -50zM1042 635v246q47 -4 76 -37t29 -78q0 -49 -32 -82 t-73 -49zM1124 387h234q-2 -27 -10.5 -58.5t-18.5 -63.5t-24.5 -60.5t-28.5 -46.5z" />
<glyph unicode="'" d="M-2 387h1008v-1005h36v1005h1008v39h-1008v162h78v559h-78v285h-36v-285h-78v-559h78v-162h-1008v-39z" />
<glyph unicode="(" d="M-2 387h766q-2 -16 -2 -35v-35q0 -199 64.5 -356.5t179.5 -290.5v-288h36v243q49 -53 105.5 -101t118.5 -95l63 98q-125 119 -194.5 276.5t-92.5 329.5v254h1008v39h-1008v76q23 172 92.5 329.5t194.5 276.5l-65 98q-59 -47 -115.5 -95t-106.5 -101v422h-36v-467 q-98 -115 -161 -247t-79 -292h-768v-39z" />
<glyph unicode=")" d="M-2 387h997v-70q0 -106 -16 -214.5t-52 -212t-92.5 -195.5t-136.5 -168l66 -100q68 53 128 107t114 114v-266h36v311q104 131 165 283.5t61 340.5q0 18 -1 36t-3 34h786v39h-788q-16 152 -72.5 277.5t-147.5 236.5v492h-36v-445q-53 59 -114 113.5t-130 105.5l-64 -98 q139 -133 209 -312.5t84 -369.5h-993v-39z" />
<glyph unicode="*" d="M-2 387h1008v-1005h36v1005h1008v39h-1008v274l103 -145l121 86l-121 168l188 59l-47 138l-188 -60v201h-56v285h-36v-285h-58v-201l-190 60l-43 -138l188 -59l-117 -168l117 -86l103 145v-274h-1008v-39z" />
<glyph unicode="+" d="M-2 387h516v-80h410v-409h82v-516h36v516h82v409h410v80h516v39h-516v82h-410v407h-82v517h-36v-517h-82v-407h-410v-82h-516v-39z" />
<glyph unicode="," d="M-2 387h1008v-395h-117v-279h117v-75q-6 -39 -35 -59.5t-68 -24.5v-123q53 6 103 24v-73h36v92q51 27 84 71.5t33 114.5v332h-117v395h1008v39h-1008v1006h-36v-1006h-1008v-39z" />
<glyph unicode="-" d="M-2 387h776v-96h232v-909h36v909h234v96h774v39h-776v90h-232v916h-36v-916h-234v-90h-774v-39z" />
<glyph unicode="." d="M-2 387h1008v-395h-117v-279h117v-331h36v331h117v279h-117v395h1008v39h-1008v1006h-36v-1006h-1008v-39z" />
<glyph unicode="/" d="M-2 387h897l-322 -711h222l211 467v-761h36v847l72 158h936v39h-917l342 758h-222l-211 -467v715h-36v-801l-93 -205h-915v-39z" />
<glyph unicode="0" d="M-2 387h526q0 -121 21.5 -244t76 -222t146.5 -163.5t238 -68.5v-307h36v307q143 4 236.5 68.5t148 163.5t76 222t21.5 244h526v39h-526q-2 119 -24.5 238.5t-77 216t-146.5 159t-234 66.5v326h-36v-326q-141 -4 -233.5 -66.5t-147 -159t-77 -216t-24.5 -238.5h-526v-39z M795 387h211v-471q-76 6 -119 58.5t-63.5 125t-24.5 150.5t-4 137zM795 426q0 61 6 137t27.5 144.5t62.5 117.5t115 56v-455h-211zM1042 -84v471h211q0 -59 -4 -137t-24.5 -149.5t-63.5 -124t-119 -60.5zM1042 426v455q74 -6 115 -55.5t62.5 -118t27.5 -144.5t6 -137h-211z " />
<glyph unicode="1" d="M-2 387h907v-674h101v-331h36v331h109v674h899v39h-901v657h-107v349h-36v-349h-60q-18 -84 -50 -134t-78 -76.5t-107.5 -35t-139.5 -8.5v-163q59 0 119 7t108 1t77.5 -37t29.5 -107v-104h-907v-39z" />
<glyph unicode="2" d="M-2 387h1008v-98q-51 -57 -109.5 -110.5t-117 -99.5t-115 -85t-103.5 -68v-213h445v-331h36v331h445v213h-445v119q98 78 187.5 160t150.5 182h670v39h-647q29 57 46 120.5t17 135.5q0 96 -30.5 174t-87 133t-134 86t-172.5 33v324h-36v-324q-117 -6 -201 -47 t-138.5 -111.5t-80 -165t-25.5 -206.5l246 -19q0 51 6 106.5t26.5 101.5t58.5 74.5t103 28.5h5v-444h-1008v-39zM895 -74q27 23 54.5 44.5t56.5 43.5v-88h-111zM1042 334v53h41q-10 -12 -20.5 -25.5t-20.5 -27.5zM1042 426v440q78 -12 111 -68.5t33 -138.5 q0 -57 -20.5 -115.5t-57.5 -117.5h-66z" />
<glyph unicode="3" d="M-2 387h924v-86h43q20 0 41 2v-387q-109 4 -162 71.5t-53 172.5l-246 -47q-2 -106 32.5 -185.5t96 -132.5t147.5 -79.5t185 -26.5v-307h36v307q92 4 176.5 32.5t146.5 81t100 129t38 179.5q0 203 -168 276h715v39h-799q111 31 164 116t53 197q0 92 -34.5 160t-94 114 t-136.5 69.5t-161 23.5v326h-36v-326q-186 -10 -302 -112.5t-147 -293.5l268 -55q4 43 15.5 83t32 73t53 54.5t80.5 25.5v-365q-10 -2 -19 -2h-16h-49v-88h-924v-39zM1042 -82v383q39 0 72 -7t56.5 -26.5t37 -53.5t13.5 -89q0 -86 -46.5 -142.5t-132.5 -64.5zM1042 520v359 q76 -6 117 -55.5t41 -127.5q0 -84 -46 -124t-112 -52z" />
<glyph unicode="4" d="M-2 387h520l-119 -170v-190h607v-645h36v331h209v314h172v215h-174v145h801v39h-801v657h-207v349h-36v-349h-7l-454 -657h-547v-39zM655 242l93 145h258v-145h-351zM772 426l232 367h2v-367h-234z" />
<glyph unicode="5" d="M-2 387h588l-8 -57l233 -19q10 23 22.5 41.5t28.5 34.5h144v-485q-88 4 -139.5 65.5t-53.5 145.5l-283 -21q4 -102 43 -178t103.5 -126t148.5 -74.5t181 -24.5v-307h36v307q104 6 192.5 44t151 102.5t97.5 153.5t35 197q0 106 -33 201h565v39h-582q-49 104 -144 166.5 t-237 62.5h-22q-10 0 -23 -2v191h371l27 239h-398v349h-36v-349h-332l-84 -657h-592v-39zM842 559l41 285h123v-199q-47 -10 -88 -32.5t-76 -53.5zM920 426q39 16 86 16v-16h-86zM1042 -96v483h123q35 -35 52.5 -86t17.5 -117q0 -49 -10.5 -97t-34 -87t-60.5 -64.5 t-88 -31.5zM1042 426v14q37 -4 62 -14h-62z" />
<glyph unicode="6" d="M-2 387h555v-22q-2 -119 17.5 -237t70.5 -213t139 -156.5t226 -69.5v-307h36v307q98 0 181.5 33.5t143.5 94t95 142.5t35 180q0 143 -55 248h608v39h-631q-51 78 -132 122t-193 44h-27q-12 0 -25 -2v291h19q72 0 116 -44t48 -114v2l258 33q-29 172 -138.5 260t-281.5 88 h-21v326h-36v-328q-125 -14 -209 -80t-136.5 -161t-77 -209.5t-30.5 -227.5h-555v-39zM821 465q0 51 7.5 115.5t28 124t56 105.5t93.5 62v-290q-53 -12 -101.5 -41t-79.5 -76h-4zM842 137q0 88 39 150.5t125 74.5v-448q-86 12 -125 74.5t-39 148.5zM1042 -88v453 q102 -2 149.5 -67t47.5 -159q0 -96 -47.5 -160.5t-149.5 -66.5z" />
<glyph unicode="7" d="M-2 387h913q-80 -156 -134 -322.5t-77 -349.5l306 -2v-331h36v438q20 131 61.5 278.5t100.5 288.5h846v39h-829q55 129 124.5 241.5t151.5 190.5v225h-455v349h-36v-349h-414v-249h414v-281q-20 -31 -39 -62.5t-35 -64.5h-934v-39zM1042 614v220h162q-43 -53 -84 -108 t-78 -112z" />
<glyph unicode="8" d="M-2 387h657q-66 -49 -103.5 -119.5t-37.5 -156.5q0 -104 41 -182.5t109.5 -130.5t157.5 -79.5t184 -29.5v-307h36v307q94 2 182.5 28.5t157 78.5t110.5 131t42 184q0 86 -39 156.5t-104 119.5h659v39h-723l-4 2q76 39 123 111.5t47 158.5v2q0 102 -35 178t-96.5 125.5 t-143 75t-176.5 27.5v326h-36v-326q-94 -2 -177.5 -26.5t-144.5 -75t-96 -125t-35 -179.5q0 -86 48 -158.5t122 -111.5l-8 -4h-717v-39zM795 109q0 98 60 144t151 50v-391q-90 4 -150.5 50.5t-60.5 146.5zM823 696q0 92 49.5 135t133.5 48v-363q-82 4 -132.5 46t-50.5 134z M1042 -88v391q90 -4 149.5 -51t59.5 -146q0 -98 -59.5 -144t-149.5 -50zM1042 516v363q82 -4 132.5 -46t50.5 -135q0 -92 -49.5 -135t-133.5 -47z" />
<glyph unicode="9" d="M-2 387h618q49 -84 133.5 -133t204.5 -49h25q12 0 27 2v-291h-17q-72 0 -116 43t-48 113l-260 -35q29 -172 138.5 -260t281.5 -88h21v-307h36v309q127 14 213 81.5t138.5 166t76 216t27.5 232.5h553v39h-553v4q0 123 -18.5 240.5t-69.5 213t-139 157t-228 67.5v324h-36 v-324q-98 -2 -181.5 -36t-143.5 -94t-95 -142t-35 -181q0 -123 45 -229h-598v-39zM809 655q0 96 47 160t150 66v-451q-104 2 -150.5 66.5t-46.5 158.5zM1042 -76v291q55 12 102.5 41t80.5 76h4q0 -51 -7.5 -115.5t-27.5 -124t-57.5 -106t-94.5 -62.5zM1042 432v447 q86 -12 125 -75t39 -149h2q0 -88 -40 -150.5t-126 -72.5z" />
<glyph unicode=":" d="M-2 387h1008v-395h-117v-279h117v-331h36v331h117v279h-117v395h1008v39h-1008v41h117v276h-117v689h-36v-689h-117v-276h117v-41h-1008v-39z" />
<glyph unicode=";" d="M-2 387h1008v-395h-117v-279h117v-75q-6 -39 -35 -59.5t-68 -24.5v-123q53 6 103 24v-73h36v92q51 27 84 71.5t33 114.5v332h-117v395h1008v39h-1008v41h117v276h-117v689h-36v-689h-117v-276h117v-41h-1008v-39z" />
<glyph unicode="&#x3c;" d="M-2 387h516v-55l492 -215v-735h36v718l492 -217v213l-492 207v84h1008v39h-1008v92l492 203v213l-492 -215v713h-36v-730l-492 -217v-59h-516v-39zM825 426l181 76v-76h-181zM842 387h164v-68z" />
<glyph unicode="=" d="M-2 387h1008v-82h-492v-203h492v-720h36v720h492v203h-492v82h1008v39h-1008v100h492v201h-492v705h-36v-705h-492v-201h492v-100h-1008v-39z" />
<glyph unicode="&#x3e;" d="M-2 387h1008v-82l-492 -205v-213l492 215v-720h36v739l492 215v51h516v39h-516v63l-492 216v727h-36v-709l-492 215v-213l492 -205v-94h-1008v-39zM1042 322v65h158zM1042 426v78l189 -78h-189z" />
<glyph unicode="?" d="M-2 387h954q-14 -35 -22 -82t-8 -108v-2v-113h84v-92h-107v-279h107v-329h36v329h127v279h-127v92h105q0 63 11 110.5t29.5 83t44 62.5t54.5 49h764v39h-713q33 25 65 52.5t56.5 64.5t39.5 88t15 125q0 98 -38.5 177t-103 133t-149.5 84t-180 32v250h-36v-250 q-209 -10 -335 -135t-136 -340l245 -35q2 53 15.5 101t41 85t68.5 60.5t101 25.5v-473q-10 -10 -18.5 -20.5t-16.5 -24.5h-973v-39zM1042 508v434q78 -8 133.5 -59.5t55.5 -134.5q0 -55 -17.5 -90t-44 -60t-60.5 -44t-67 -46z" />
<glyph unicode="@" d="M-2 387h299q6 -150 62.5 -275.5t149.5 -219t220 -149.5t277 -65v-296h36v294h17q201 -2 358.5 81t268.5 253h-158q-94 -104 -209 -142t-252 -38h-25v193q27 16 49.5 36.5t43.5 42.5h4q2 -53 34.5 -89t86.5 -36q82 0 155.5 35t134 92.5t105.5 131t69 151.5h326v39h-315 q18 70 18 139q0 141 -59.5 255t-155.5 195t-222 124t-257 43h-17v250h-36v-252q-147 -10 -277.5 -71.5t-226.5 -161t-151.5 -231.5t-55.5 -284v-6h-297v-39zM473 426q0 119 39 224.5t108.5 186.5t168 131t217.5 60v-184q-84 -6 -153 -42t-120 -93.5t-84 -131t-45 -151.5 h-131zM475 387h123q-2 -16 -3 -33.5t-1 -34.5q0 -70 20.5 -131t60.5 -108t96 -75t130 -28q29 0 54.5 7.5t50.5 17.5v-170q-113 10 -207 56t-164 119t-112 170t-48 210zM795 307q0 45 8 80h203v-219q-43 -16 -82 -16q-66 0 -97.5 48t-31.5 107zM811 426q23 78 71 143.5 t124 85.5v-229h-195zM1042 186v201h150q-18 -59 -57.5 -113.5t-92.5 -87.5zM1042 426v238h19q76 0 110.5 -54.5t34.5 -124.5q0 -29 -6 -59h-158zM1042 844v186h17q111 2 209 -31.5t171.5 -97t116.5 -157t43 -212.5q0 -49 -12 -106h-219q14 53 29.5 109.5t31 107.5t27.5 95 t21 75l-166 2l-35 -117q-35 78 -94.5 110t-139.5 36zM1323 195v2q0 29 9 80t26 110h219q-12 -43 -32.5 -85t-47.5 -74.5t-60.5 -53t-74.5 -20.5q-16 0 -27.5 12.5t-11.5 28.5z" />
<glyph unicode="A" d="M-2 387h465q-61 -53 -97 -131t-36 -184q0 -92 41 -167t106.5 -127t149.5 -81t170 -29q104 0 209 29v-315h36v329q147 53 263 170q25 -98 86 -144t161 -46q41 0 82 7t82 17l2 205h-88q-33 0 -51 14.5t-27.5 36t-11.5 48t-2 51.5v317h512v39h-512v309q0 117 -40 199 t-108.5 135t-158.5 80t-189 35v248h-36v-246q-14 2 -29 2h-27q-109 0 -208 -30t-176 -90t-123 -149.5t-46 -207.5l2 -11l267 -16q-2 145 66.5 219t215.5 74h29q14 0 29 -2v-410q-133 -12 -262.5 -42.5t-229.5 -96.5h-516v-39zM612 88q0 61 35 106.5t90.5 77t126 53 t142.5 35.5v-466q-66 -16 -129 -17q-49 0 -96.5 11.5t-85.5 37t-60.5 65.5t-22.5 97zM1042 -94v463q74 12 136 18h94v-141q0 -127 -63 -214t-167 -126zM1042 569v404q111 -14 170.5 -73.5t59.5 -203.5v-112q-53 -4 -111 -7.5t-119 -7.5z" />
<glyph unicode="B" d="M-2 387h442v-674h566v-331h36v331h9q113 0 214 17.5t177 64.5t120 130t44 216q0 72 -23.5 135.5t-69.5 110.5h537v39h-577q-76 61 -177 70v4q115 23 178.5 97.5t63.5 190.5q0 92 -34 160t-92 112t-135 65.5t-161 21.5h-74v285h-36v-285h-566v-721h-442v-39zM711 -49v418 h295v-418h-295zM711 571v363h295v-365zM1042 -49v418h17q57 0 105 -10.5t83 -36t54.5 -67.5t19.5 -105q0 -61 -21.5 -99.5t-57.5 -61t-83 -30.5t-100 -8h-17zM1042 569v365q43 -2 82 -11.5t69 -30t47 -54t17 -82.5t-17 -85t-47 -57.5t-69 -33t-82 -11.5z" />
<glyph unicode="C" d="M-2 387h389q6 -141 48 -265t121 -218t191.5 -152.5t258.5 -70.5v-299h36v296h29q225 0 368.5 111t223.5 315l-244 113q-39 -125 -125 -208t-223 -83h-29v461h1008v39h-1008v506h29q59 0 113.5 -19.5t96.5 -54.5t70.5 -84t37.5 -108l260 65q-49 219 -202 336t-374 117h-31 v248h-36v-250q-145 -12 -260 -78t-195 -167t-122 -232.5t-42 -274.5l-2 -4h-387v-39zM668 387h338v-457q-84 12 -145.5 55.5t-102.5 106t-63.5 139t-26.5 156.5zM668 426v2q0 86 18.5 170t60 152.5t105 115.5t154.5 62v-502h-338z" />
<glyph unicode="D" d="M-2 387h1008v-1005h36v1005h1008v39h-1008v1006h-36v-1006h-1008v-39zM420 -287h553q172 0 296 51.5t203.5 145.5t117.5 226t38 294q0 168 -46 301t-135 225.5t-221 141.5t-302 49h-504v-1434zM690 -37v934h240q111 0 189.5 -34t128.5 -95t74 -147t24 -191 q0 -113 -18.5 -201t-66 -147t-126 -90t-201.5 -31z" />
<glyph unicode="E" d="M-2 387h338q4 -147 51 -277t133 -228.5t208 -157t278 -60.5v-282h36v282q242 6 414 130t242 364l2 12l-268 35q-2 -76 -38 -136.5t-91.5 -102.5t-124 -64.5t-136.5 -22.5v483l666 5l2 20h340v39h-338v63q0 154 -46 282t-133 220t-212 144.5t-279 54.5v242h-36v-242 q-174 -4 -300 -62.5t-208 -160t-122 -239.5t-40 -302h-338v-39zM623 580q8 78 36.5 148.5t76.5 124.5t116 86t152 32l2 -391h-383zM625 358l381 2v-479q-96 6 -167 47t-119 105.5t-71.5 148.5t-23.5 176zM1042 580v389q166 -12 260.5 -118t118.5 -271h-379z" />
<glyph unicode="F" d="M-2 387h555v-674h270v604h183v-935h36v935h369v70h639v39h-639v129h-369v342h453v250h-453v285h-36v-285h-453v-721h-555v-39zM823 555v342h183v-342h-183z" />
<glyph unicode="G" d="M-2 387h379q6 -143 49 -267t123 -218.5t194.5 -152.5t262.5 -68v-299h36v296h19h10q99 0 196 39q101 41 173 119l-2 -123h233v674h379v39h-379v70h-629v436h19q135 0 230 -69.5t130 -200.5v-3l250 103q-78 203 -233.5 311.5t-374.5 108.5h-21v250h-36v-252 q-147 -10 -263 -75t-198 -166t-125 -232.5t-43 -276.5v-4h-379v-39zM657 426v2q0 88 20.5 173t62.5 153.5t107.5 114.5t158.5 59v-502h-349zM659 387h347v-457q-86 10 -149.5 52.5t-105.5 105t-65 140t-27 159.5zM1042 -74v332h385q0 -74 -31.5 -135.5t-81.5 -104.5 t-117 -67.5t-136 -24.5h-19z" />
<glyph unicode="H" d="M-2 387h448v-674h271v647h289v-978h36v978h289v-647h271v674h448v39h-448v721h-271v-539h-289v824h-36v-824h-289v539h-271v-721h-448v-39z" />
<glyph unicode="I" d="M-2 387h891v-463h-314v-215h431v-327h36v327h431v215h-314v463h891v39h-891v506h314v215h-431v285h-36v-285h-431v-215h314v-506h-891v-39z" />
<glyph unicode="J" d="M-2 387h901v-264q0 -96 -56.5 -140t-146.5 -44q-35 0 -70.5 1t-70.5 15v-260q94 -16 178 -17q72 0 142.5 14.5t130.5 49.5v-360h36v385q57 41 91 104t34 149h2v367h881v39h-881v721h-127v285h-36v-285h-107v-721h-901v-39z" />
<glyph unicode="K" d="M-2 387h432v-674h270v412l230 258l76 -96v-905h36v856l422 -531l254 100l-438 580h770v39h-799l-135 178l471 543l-268 59l-277 -313v539h-36v-584l-308 -346v645h-270v-721h-430v-39z" />
<glyph unicode="L" d="M-2 387h600v-674h408v-331h36v331h408v250h-408v424h1008v39h-1008v1006h-36v-1006h-138v721h-270v-721h-600v-39zM868 -37v424h138v-424h-138z" />
<glyph unicode="M" d="M-2 387h195v-684h258v684h454v-684h101v-321h36v321h121v684h434v-684h258v684h195v39h-195v231q0 279 -101 404t-306 127q-49 0 -99.5 -19.5t-96.5 -51.5t-85 -75t-69 -92q-23 57 -56 97v385h-36v-342q-53 49 -117 73.5t-133 24.5q-92 0 -177 -55.5t-145 -143.5v164 h-241v-727h-195v-39zM451 426v225q0 70 23.5 124t63.5 91t89 55.5t102 18.5t88 -18.5t54.5 -54.5t26.5 -86t7 -111v-244h-454zM1163 426v225q0 72 21.5 126t56.5 91t82 55.5t100 18.5t87 -19.5t53.5 -55.5t26.5 -86t7 -111v-244h-434z" />
<glyph unicode="N" d="M-2 387h430v-684h266v684h312v-1005h36v1005h316v-684h264v684h428v39h-430v229q0 256 -125 395.5t-389 139.5q-16 0 -31.5 -1t-32.5 -3v246h-36v-252q-94 -18 -174 -69.5t-140 -131.5v174h-266v-727h-428v-39zM692 426v149q0 154 85 250.5t229 112.5v-512h-314z M1042 426v516h25q158 0 224.5 -80t66.5 -231v-205h-316z" />
<glyph unicode="O" d="M-2 387h340q6 -143 54 -271t134 -224.5t207 -155t273 -60.5v-294h36v294q150 4 271 62.5t207 156t135 224.5t55 268h340v39h-340v4q0 150 -46 284t-132 236.5t-210 165t-280 66.5v250h-36v-250q-156 -4 -280 -65.5t-210 -164t-132 -237.5t-46 -285v-4h-340v-39zM618 426 v2v2q0 92 23 180t70 158t119.5 115t175.5 49v-506h-388zM621 387h385v-459q-96 4 -167 44t-118 103.5t-71.5 144.5t-28.5 167zM1042 -72v459h383q-4 -86 -28.5 -167t-71.5 -144.5t-118 -103.5t-165 -44zM1042 426v506q100 -4 174 -49t120 -115t68.5 -157t22.5 -179v-6h-385z " />
<glyph unicode="P" d="M-2 387h491v-674h271v484q59 0 121 -1q12 0 24 -1q49 0 101 4v-817h36v819q70 4 135.5 14t124 31.5t105.5 55.5t82 85h561v39h-539q23 47 36.5 105.5t13.5 132.5q0 117 -36 207t-102.5 151t-160 93t-205.5 32h-15v285h-36v-285h-519v-721h-489v-39zM758 426v496h248v-496 h-248zM1042 426v496q119 -6 177.5 -68.5t58.5 -189.5q0 -102 -52 -162t-145 -76h-39z" />
<glyph unicode="Q" d="M-2 387h348q6 -141 54.5 -268t133 -224.5t203.5 -155.5t269 -65v-292h36v290l541 9v-5h406v218h-459q90 104 134 231t52 262h334v39h-334v2q0 150 -46 285t-133 238.5t-212 165t-283 63.5v252h-36v-252q-154 -6 -276 -67.5t-208 -164t-131 -236.5t-45 -284v-2h-348v-39z M627 426v2v2q0 90 21.5 178t67.5 158t117.5 115t172.5 51v-506h-379zM629 387h377v-459q-94 6 -164 46t-116 103.5t-69.5 143.5t-27.5 166zM1042 -72v459h392q-4 -86 -30 -168t-73 -145.5t-119 -103.5t-170 -42zM1042 426v506q104 -2 178 -46t122.5 -114t71 -159t22.5 -181 v-6h-394z" />
<glyph unicode="R" d="M-2 387h467v-674h270v529h256l15 -23v-837h36v776l306 -490l251 109l-337 514q100 37 161 96h627v39h-592q86 111 86 287q0 106 -37 187t-102.5 136.5t-153.5 83t-188 27.5h-21v285h-36v-285h-541v-721h-467v-39zM735 479v430h254h17v-432zM1042 477v430q45 -6 85 -19.5 t71 -39t48.5 -63t17.5 -91.5q0 -100 -64 -156.5t-158 -60.5z" />
<glyph unicode="S" d="M-2 387h739q63 -25 132 -41t137 -33v-383q-115 10 -213.5 62.5t-163.5 150.5l-230 -163q102 -147 266 -223t341 -81v-294h36v294q109 2 217.5 29t194.5 82t139.5 144t53.5 216v14q0 70 -20 124q-22 59 -60 102h483v39h-522q-47 39 -105.5 65.5t-122 45t-130.5 31.5 l-128 26v340q115 -2 214.5 -52.5t152.5 -154.5l225 168q-111 145 -261 215t-331 72v250h-36v-250q-98 -4 -192.5 -34t-168.5 -85t-120 -136t-46 -190q0 -117 50.5 -190.5t127.5 -120.5h-659v-39zM762 774q0 43 23.5 73t60.5 48t80 27.5t80 11.5v-332q-51 12 -96.5 25.5 t-78 34t-51 47t-18.5 65.5zM1042 -72v377q66 -14 125.5 -28.5t103.5 -36t69.5 -53t25.5 -76.5q0 -55 -31.5 -91t-78 -55.5t-99.5 -28t-96 -8.5h-19z" />
<glyph unicode="T" d="M-2 387h893v-674h115v-331h36v331h117v674h891v39h-893v471h395v250h-510v285h-36v-285h-510v-250h395v-471h-893v-39z" />
<glyph unicode="U" d="M-2 387h448v-233q0 -121 47.5 -209t125 -146.5t178 -88t209.5 -32.5v-296h36v296q109 2 209.5 32t178 88.5t125 146.5t47.5 209v233h448v39h-448v721h-271v-721h-289v1006h-36v-1006h-289v721h-271v-721h-448v-39zM717 225v162h289v-448q-141 4 -215 69t-74 217z M1042 -61v448h289v-162q0 -152 -74 -217t-215 -69z" />
<glyph unicode="V" d="M-2 387h649l197 -674h162v-331h36v331h162l197 674h649v39h-637l211 721h-283l-198 -721h-101v1006h-36v-1006h-101l-198 721h-283l211 -721h-637v-39zM915 387h91v-319zM1042 68v319h91z" />
<glyph unicode="W" d="M-2 387h360l138 -674h315l137 674h58v-1005h36v1005h58l137 -674h315l138 674h360v39h-352l147 721h-272l-123 -721h-145l-138 721h-125v285h-36v-285h-109l-139 -721h-156l-127 721h-272l147 -721h-352v-39zM608 387h142l-70 -360h-8zM956 426l50 233v-233h-50z M1042 426v233l50 -233h-50zM1313 387h129l-60 -348h-4z" />
<glyph unicode="X" d="M-2 387h803l-418 -674l276 -55l347 557v-833h36v835l338 -563l285 59l-418 674h803v39h-827l-39 61l411 660l-297 59l-256 -442v668h-36v-666l-258 440l-295 -59l411 -660l-39 -61h-827v-39z" />
<glyph unicode="Y" d="M-2 387h827l64 -115v-559h117v-331h36v331h117v559l64 115h827v39h-807l393 721h-301l-293 -555v840h-36v-840l-295 555h-299l393 -721h-807v-39z" />
<glyph unicode="Z" d="M-2 387h819l-352 -436v-238h541v-331h36v331h541v238h-541v289l121 147h887v39h-856l389 483v238h-541v285h-36v-285h-476v-238h476v-288l-156 -195h-852v-39zM811 -49l195 239v-239h-195zM1042 668v241h197z" />
<glyph unicode="[" d="M-2 387h786v-899h222v-106h36v106h273v201h-273v698h1008v39h-1008v520h273v201h-273v285h-36v-285h-224v-721h-784v-39z" />
<glyph unicode="\" d="M-2 387h936l72 -158v-847h36v761l213 -467h220l-322 711h897v39h-915l-93 205v801h-36v-715l-213 467h-220l342 -758h-917v-39z" />
<glyph unicode="]" d="M-2 387h1008v-698h-275v-201h275v-106h36v106h222v899h786v39h-788v721h-220v285h-36v-285h-275v-201h275v-520h-1008v-39z" />
<glyph unicode="^" d="M-2 387h596l-59 -119h210l58 119h203v-1005h36v1005h203l58 -119h210l-59 119h596v39h-614l-324 657h-70v349h-36v-349h-70l-324 -657h-614v-39zM821 426l185 377v-377h-185zM1042 426v377l185 -377h-185z" />
<glyph unicode="_" d="M-2 387h1008v-1005h36v1005h1008v39h-1008v1006h-36v-1006h-1008v-39z" />
<glyph unicode="`" d="M-2 387h1008v-1005h36v1005h1008v39h-1008v471l41 -41h168l-184 291h-25v285h-36v-285h-209l209 -211v-510h-1008v-39z" />
<glyph unicode="a" d="M-2 387h465q-61 -53 -97 -131t-36 -184q0 -92 41 -167t106.5 -127t149.5 -81t170 -29q104 0 209 29v-315h36v329q147 53 263 170q25 -98 86 -144t161 -46q41 0 82 7t82 17l2 205h-88q-33 0 -51 14.5t-27.5 36t-11.5 48t-2 51.5v317h512v39h-512v309q0 117 -40 199 t-108.5 135t-158.5 80t-189 35v248h-36v-246q-14 2 -29 2h-27q-109 0 -208 -30t-176 -90t-123 -149.5t-46 -207.5l2 -11l267 -16q-2 145 66.5 219t215.5 74h29q14 0 29 -2v-410q-133 -12 -262.5 -42.5t-229.5 -96.5h-516v-39zM612 88q0 61 35 106.5t90.5 77t126 53 t142.5 35.5v-466q-66 -16 -129 -17q-49 0 -96.5 11.5t-85.5 37t-60.5 65.5t-22.5 97zM1042 -94v463q74 12 136 18h94v-141q0 -127 -63 -214t-167 -126zM1042 569v404q111 -14 170.5 -73.5t59.5 -203.5v-112q-53 -4 -111 -7.5t-119 -7.5z" />
<glyph unicode="b" d="M-2 387h442v-674h566v-331h36v331h9q113 0 214 17.5t177 64.5t120 130t44 216q0 72 -23.5 135.5t-69.5 110.5h537v39h-577q-76 61 -177 70v4q115 23 178.5 97.5t63.5 190.5q0 92 -34 160t-92 112t-135 65.5t-161 21.5h-74v285h-36v-285h-566v-721h-442v-39zM711 -49v418 h295v-418h-295zM711 571v363h295v-365zM1042 -49v418h17q57 0 105 -10.5t83 -36t54.5 -67.5t19.5 -105q0 -61 -21.5 -99.5t-57.5 -61t-83 -30.5t-100 -8h-17zM1042 569v365q43 -2 82 -11.5t69 -30t47 -54t17 -82.5t-17 -85t-47 -57.5t-69 -33t-82 -11.5z" />
<glyph unicode="c" d="M-2 387h389q6 -141 48 -265t121 -218t191.5 -152.5t258.5 -70.5v-299h36v296h29q225 0 368.5 111t223.5 315l-244 113q-39 -125 -125 -208t-223 -83h-29v461h1008v39h-1008v506h29q59 0 113.5 -19.5t96.5 -54.5t70.5 -84t37.5 -108l260 65q-49 219 -202 336t-374 117h-31 v248h-36v-250q-145 -12 -260 -78t-195 -167t-122 -232.5t-42 -274.5l-2 -4h-387v-39zM668 387h338v-457q-84 12 -145.5 55.5t-102.5 106t-63.5 139t-26.5 156.5zM668 426v2q0 86 18.5 170t60 152.5t105 115.5t154.5 62v-502h-338z" />
<glyph unicode="d" d="M-2 387h1008v-1005h36v1005h1008v39h-1008v1006h-36v-1006h-1008v-39zM420 -287h553q172 0 296 51.5t203.5 145.5t117.5 226t38 294q0 168 -46 301t-135 225.5t-221 141.5t-302 49h-504v-1434zM690 -37v934h240q111 0 189.5 -34t128.5 -95t74 -147t24 -191 q0 -113 -18.5 -201t-66 -147t-126 -90t-201.5 -31z" />
<glyph unicode="e" d="M-2 387h338q4 -147 51 -277t133 -228.5t208 -157t278 -60.5v-282h36v282q242 6 414 130t242 364l2 12l-268 35q-2 -76 -38 -136.5t-91.5 -102.5t-124 -64.5t-136.5 -22.5v483l666 5l2 20h340v39h-338v63q0 154 -46 282t-133 220t-212 144.5t-279 54.5v242h-36v-242 q-174 -4 -300 -62.5t-208 -160t-122 -239.5t-40 -302h-338v-39zM623 580q8 78 36.5 148.5t76.5 124.5t116 86t152 32l2 -391h-383zM625 358l381 2v-479q-96 6 -167 47t-119 105.5t-71.5 148.5t-23.5 176zM1042 580v389q166 -12 260.5 -118t118.5 -271h-379z" />
<glyph unicode="f" d="M-2 387h555v-674h270v604h183v-935h36v935h369v70h639v39h-639v129h-369v342h453v250h-453v285h-36v-285h-453v-721h-555v-39zM823 555v342h183v-342h-183z" />
<glyph unicode="g" d="M-2 387h379q6 -143 49 -267t123 -218.5t194.5 -152.5t262.5 -68v-299h36v296h19h10q99 0 196 39q101 41 173 119l-2 -123h233v674h379v39h-379v70h-629v436h19q135 0 230 -69.5t130 -200.5v-3l250 103q-78 203 -233.5 311.5t-374.5 108.5h-21v250h-36v-252 q-147 -10 -263 -75t-198 -166t-125 -232.5t-43 -276.5v-4h-379v-39zM657 426v2q0 88 20.5 173t62.5 153.5t107.5 114.5t158.5 59v-502h-349zM659 387h347v-457q-86 10 -149.5 52.5t-105.5 105t-65 140t-27 159.5zM1042 -74v332h385q0 -74 -31.5 -135.5t-81.5 -104.5 t-117 -67.5t-136 -24.5h-19z" />
<glyph unicode="h" d="M-2 387h448v-674h271v647h289v-978h36v978h289v-647h271v674h448v39h-448v721h-271v-539h-289v824h-36v-824h-289v539h-271v-721h-448v-39z" />
<glyph unicode="i" d="M-2 387h891v-463h-314v-215h431v-327h36v327h431v215h-314v463h891v39h-891v506h314v215h-431v285h-36v-285h-431v-215h314v-506h-891v-39z" />
<glyph unicode="j" d="M-2 387h901v-264q0 -96 -56.5 -140t-146.5 -44q-35 0 -70.5 1t-70.5 15v-260q94 -16 178 -17q72 0 142.5 14.5t130.5 49.5v-360h36v385q57 41 91 104t34 149h2v367h881v39h-881v721h-127v285h-36v-285h-107v-721h-901v-39z" />
<glyph unicode="k" d="M-2 387h432v-674h270v412l230 258l76 -96v-905h36v856l422 -531l254 100l-438 580h770v39h-799l-135 178l471 543l-268 59l-277 -313v539h-36v-584l-308 -346v645h-270v-721h-430v-39z" />
<glyph unicode="l" d="M-2 387h600v-674h408v-331h36v331h408v250h-408v424h1008v39h-1008v1006h-36v-1006h-138v721h-270v-721h-600v-39zM868 -37v424h138v-424h-138z" />
<glyph unicode="m" d="M-2 387h195v-684h258v684h454v-684h101v-321h36v321h121v684h434v-684h258v684h195v39h-195v231q0 279 -101 404t-306 127q-49 0 -99.5 -19.5t-96.5 -51.5t-85 -75t-69 -92q-23 57 -56 97v385h-36v-342q-53 49 -117 73.5t-133 24.5q-92 0 -177 -55.5t-145 -143.5v164 h-241v-727h-195v-39zM451 426v225q0 70 23.5 124t63.5 91t89 55.5t102 18.5t88 -18.5t54.5 -54.5t26.5 -86t7 -111v-244h-454zM1163 426v225q0 72 21.5 126t56.5 91t82 55.5t100 18.5t87 -19.5t53.5 -55.5t26.5 -86t7 -111v-244h-434z" />
<glyph unicode="n" d="M-2 387h430v-684h266v684h312v-1005h36v1005h316v-684h264v684h428v39h-430v229q0 256 -125 395.5t-389 139.5q-16 0 -31.5 -1t-32.5 -3v246h-36v-252q-94 -18 -174 -69.5t-140 -131.5v174h-266v-727h-428v-39zM692 426v149q0 154 85 250.5t229 112.5v-512h-314z M1042 426v516h25q158 0 224.5 -80t66.5 -231v-205h-316z" />
<glyph unicode="o" d="M-2 387h340q6 -143 54 -271t134 -224.5t207 -155t273 -60.5v-294h36v294q150 4 271 62.5t207 156t135 224.5t55 268h340v39h-340v4q0 150 -46 284t-132 236.5t-210 165t-280 66.5v250h-36v-250q-156 -4 -280 -65.5t-210 -164t-132 -237.5t-46 -285v-4h-340v-39zM618 426 v2v2q0 92 23 180t70 158t119.5 115t175.5 49v-506h-388zM621 387h385v-459q-96 4 -167 44t-118 103.5t-71.5 144.5t-28.5 167zM1042 -72v459h383q-4 -86 -28.5 -167t-71.5 -144.5t-118 -103.5t-165 -44zM1042 426v506q100 -4 174 -49t120 -115t68.5 -157t22.5 -179v-6h-385z " />
<glyph unicode="p" d="M-2 387h491v-674h271v484q59 0 121 -1q12 0 24 -1q49 0 101 4v-817h36v819q70 4 135.5 14t124 31.5t105.5 55.5t82 85h561v39h-539q23 47 36.5 105.5t13.5 132.5q0 117 -36 207t-102.5 151t-160 93t-205.5 32h-15v285h-36v-285h-519v-721h-489v-39zM758 426v496h248v-496 h-248zM1042 426v496q119 -6 177.5 -68.5t58.5 -189.5q0 -102 -52 -162t-145 -76h-39z" />
<glyph unicode="q" d="M-2 387h348q6 -141 54.5 -268t133 -224.5t203.5 -155.5t269 -65v-292h36v290l541 9v-5h406v218h-459q90 104 134 231t52 262h334v39h-334v2q0 150 -46 285t-133 238.5t-212 165t-283 63.5v252h-36v-252q-154 -6 -276 -67.5t-208 -164t-131 -236.5t-45 -284v-2h-348v-39z M627 426v2v2q0 90 21.5 178t67.5 158t117.5 115t172.5 51v-506h-379zM629 387h377v-459q-94 6 -164 46t-116 103.5t-69.5 143.5t-27.5 166zM1042 -72v459h392q-4 -86 -30 -168t-73 -145.5t-119 -103.5t-170 -42zM1042 426v506q104 -2 178 -46t122.5 -114t71 -159t22.5 -181 v-6h-394z" />
<glyph unicode="r" d="M-2 387h467v-674h270v529h256l15 -23v-837h36v776l306 -490l251 109l-337 514q100 37 161 96h627v39h-592q86 111 86 287q0 106 -37 187t-102.5 136.5t-153.5 83t-188 27.5h-21v285h-36v-285h-541v-721h-467v-39zM735 479v430h254h17v-432zM1042 477v430q45 -6 85 -19.5 t71 -39t48.5 -63t17.5 -91.5q0 -100 -64 -156.5t-158 -60.5z" />
<glyph unicode="s" d="M-2 387h739q63 -25 132 -41t137 -33v-383q-115 10 -213.5 62.5t-163.5 150.5l-230 -163q102 -147 266 -223t341 -81v-294h36v294q109 2 217.5 29t194.5 82t139.5 144t53.5 216v14q0 70 -20 124q-22 59 -60 102h483v39h-522q-47 39 -105.5 65.5t-122 45t-130.5 31.5 l-128 26v340q115 -2 214.5 -52.5t152.5 -154.5l225 168q-111 145 -261 215t-331 72v250h-36v-250q-98 -4 -192.5 -34t-168.5 -85t-120 -136t-46 -190q0 -117 50.5 -190.5t127.5 -120.5h-659v-39zM762 774q0 43 23.5 73t60.5 48t80 27.5t80 11.5v-332q-51 12 -96.5 25.5 t-78 34t-51 47t-18.5 65.5zM1042 -72v377q66 -14 125.5 -28.5t103.5 -36t69.5 -53t25.5 -76.5q0 -55 -31.5 -91t-78 -55.5t-99.5 -28t-96 -8.5h-19z" />
<glyph unicode="t" d="M-2 387h893v-674h115v-331h36v331h117v674h891v39h-893v471h395v250h-510v285h-36v-285h-510v-250h395v-471h-893v-39z" />
<glyph unicode="u" d="M-2 387h448v-233q0 -121 47.5 -209t125 -146.5t178 -88t209.5 -32.5v-296h36v296q109 2 209.5 32t178 88.5t125 146.5t47.5 209v233h448v39h-448v721h-271v-721h-289v1006h-36v-1006h-289v721h-271v-721h-448v-39zM717 225v162h289v-448q-141 4 -215 69t-74 217z M1042 -61v448h289v-162q0 -152 -74 -217t-215 -69z" />
<glyph unicode="v" d="M-2 387h649l197 -674h162v-331h36v331h162l197 674h649v39h-637l211 721h-283l-198 -721h-101v1006h-36v-1006h-101l-198 721h-283l211 -721h-637v-39zM915 387h91v-319zM1042 68v319h91z" />
<glyph unicode="w" d="M-2 387h360l138 -674h315l137 674h58v-1005h36v1005h58l137 -674h315l138 674h360v39h-352l147 721h-272l-123 -721h-145l-138 721h-125v285h-36v-285h-109l-139 -721h-156l-127 721h-272l147 -721h-352v-39zM608 387h142l-70 -360h-8zM956 426l50 233v-233h-50z M1042 426v233l50 -233h-50zM1313 387h129l-60 -348h-4z" />
<glyph unicode="x" d="M-2 387h803l-418 -674l276 -55l347 557v-833h36v835l338 -563l285 59l-418 674h803v39h-827l-39 61l411 660l-297 59l-256 -442v668h-36v-666l-258 440l-295 -59l411 -660l-39 -61h-827v-39z" />
<glyph unicode="y" d="M-2 387h827l64 -115v-559h117v-331h36v331h117v559l64 115h827v39h-807l393 721h-301l-293 -555v840h-36v-840l-295 555h-299l393 -721h-807v-39z" />
<glyph unicode="z" d="M-2 387h819l-352 -436v-238h541v-331h36v331h541v238h-541v289l121 147h887v39h-856l389 483v238h-541v285h-36v-285h-476v-238h476v-288l-156 -195h-852v-39zM811 -49l195 239v-239h-195zM1042 668v241h197z" />
<glyph unicode="{" d="M741 248q41 0 69 -15.5t44 -41t22.5 -59.5t6.5 -69v-342q0 -70 15 -114.5t48 -71.5t81 -37t114 -10h166v141q-35 0 -68 -1t-57.5 7.5t-39 31t-14.5 69.5v354q0 96 -43 152.5t-139 72.5v4q76 12 115 49.5t56.5 87.5t16.5 110.5t-6.5 122t-9.5 118.5t5.5 101t39 71t88.5 27 h56v141h-166q-66 0 -114 -10.5t-81 -37t-48 -71.5t-15 -115v-342q0 -35 -6.5 -68.5t-22.5 -59t-44 -41t-69 -15.5v-139z" />
<glyph unicode="|" d="M924 -324h200v1508h-200v-1508z" />
<glyph unicode="}" d="M741 -371v-141h166q66 0 114 10t81 37t48 72t15 114v342q0 35 6.5 69t22.5 59.5t44 41t69 15.5v139q-43 0 -71 15.5t-44 41t-22.5 59.5t-6.5 68v342q0 70 -15 115t-48 71.5t-81 37t-114 10.5h-164v-141h68q33 0 57.5 -8.5t39 -32t14.5 -68.5v-352q0 -96 43 -152.5 t139 -73.5v-4q-76 -12 -116 -49t-56.5 -87t-16.5 -111q0 -59 5.5 -121t9.5 -119t-5.5 -101t-38 -71t-89.5 -27h-54z" />
<glyph unicode="~" d="M559 217l72 -172q14 23 31.5 48.5t39 47t46 35.5t55.5 14q45 0 97 -21.5t107.5 -47t114 -47t115.5 -21.5q90 0 151.5 49.5t100.5 124.5l-72 172q-14 -23 -31.5 -47t-39 -45.5t-46 -36t-55.5 -14.5q-45 0 -97 20.5t-107.5 46t-114 47t-115.5 21.5q-90 0 -151.5 -49 t-100.5 -125z" />
<glyph unicode="&#xa1;" d="M-2 387h952q-18 -104 -39.5 -209.5t-21.5 -210.5v-555h117v-30h36v30h117v555q0 104 -21.5 210t-41.5 210h954v39h-963l-4 25l-4 24h-37v92h117v277h-117v588h-36v-588h-117v-277h117v-90h-39q-2 -12 -4 -25.5t-5 -25.5h-960v-39z" />
<glyph unicode="&#xa2;" d="M-2 387h526q2 -96 32 -183t84 -154.5t133 -114t179 -62.5v-225h54v-266h36v266h74v225q63 8 120.5 37t105 71t84 95t61.5 108l-209 113q-23 -59 -62.5 -110.5t-99.5 -73.5v274h934v39h-934v276q53 -16 91 -56t55 -93l215 98q-49 121 -138.5 199t-222.5 92v223h-74v267 h-36v-267h-54v-225q-100 -14 -179 -60t-133 -115t-84 -156t-32 -183h-526v-39zM782 387h170v-270q-84 35 -125 109.5t-45 160.5zM782 426q4 86 45 162t125 108v-270h-170z" />
<glyph unicode="&#xa3;" d="M-2 387h584v-121h274q16 -45 20.5 -93t4.5 -95q-41 18 -84 29.5t-88 11.5q-43 0 -79 -17.5t-61.5 -47t-41 -68.5t-15.5 -80q0 -94 59.5 -149.5t151.5 -55.5q68 0 126 31.5t101 83.5q25 -18 56 -37v-397h36v374q53 -29 108.5 -48t113.5 -19q86 0 139 45t83 112.5t40 146.5 t10 144v10h-260q0 -23 -2 -57.5t-11.5 -68t-27.5 -58t-51 -24.5q-37 0 -73 19t-69 36q16 39 22.5 78t6.5 80q0 29 -4 57l-8 57h182v121h809v39h-811v31h-197v424h15q94 0 138 -54.5t44 -144.5q0 -23 -4 -43.5t-8 -42.5l270 2q0 121 -22.5 215t-74.5 159.5t-140.5 99.5 t-217.5 34v326h-36v-326q-82 -4 -153 -27.5t-123 -68.5t-83 -112t-31 -157q0 -78 38 -150.5t85 -131.5l-159 -2v-31h-582v-39zM651 -102q0 23 17.5 40t40.5 17q35 0 62.5 -17.5t49.5 -39.5q-43 -55 -106 -56q-25 0 -44.5 14.5t-19.5 41.5zM885 725q0 61 33.5 99t87.5 50 v-417h-11q-12 33 -30.5 65.5t-37 64t-30.5 66.5t-12 72z" />
<glyph unicode="&#xa4;" d="M-2 387h526q2 -76 26.5 -149.5t76.5 -133.5l-117 -114l106 -105l115 117q53 -53 126 -75.5t149 -26.5v-518h36v518q76 2 149 24.5t128 75.5l115 -115l104 105l-117 114q51 59 77 132t26 151h526v39h-526q-4 72 -27.5 142.5t-75.5 123.5l117 115l-106 104l-115 -112 q-55 47 -128 70.5t-147 27.5v535h-36v-535q-74 -4 -147 -27.5t-130 -70.5l-115 112l-104 -104l117 -115q-53 -53 -76 -123.5t-27 -142.5h-526v-39zM739 387h267v-287q-119 8 -191 89t-76 198zM739 426q10 111 81 186.5t186 81.5v-268h-267zM1042 100v287h265 q-4 -117 -75 -198t-190 -89zM1042 426v270q113 -8 183.5 -83.5t81.5 -186.5h-265z" />
<glyph unicode="&#xa5;" d="M-2 387h590v-61h295l18 -37v-119h-315v-164h315v-293h105v-331h36v331h105v293h315v164h-317v119l22 37h295v61h588v39h-590v63h-207l322 594h-248l-285 -542v891h-36v-895l-287 546h-246l320 -594h-207v-63h-588v-39z" />
<glyph unicode="&#xa6;" d="M-2 387h1008v-121h-82v-590h82v-294h36v294h82v590h-82v121h1008v39h-1008v168h82v590h-82v248h-36v-248h-82v-590h82v-168h-1008v-39z" />
<glyph unicode="&#xa7;" d="M-2 387h522q14 -80 66.5 -138.5t123 -104.5t149.5 -80.5t147 -65.5v-234h-19q-78 2 -149.5 33t-130.5 74l-121 -184q98 -57 199.5 -90t215.5 -33h5v-182h36v184q72 4 143.5 25.5t129 61.5t93.5 99.5t36 141.5q0 68 -35 129t-94 98q80 43 139 108.5t74 157.5h522v39h-518 v10q2 92 -47 160t-123 119t-160 90t-160 74v213q72 -6 137.5 -33t127.5 -55v2l108 194q-90 41 -182 65.5t-191 28.5v138h-36v-136h-13q-70 0 -138.5 -17t-122.5 -55t-87 -96.5t-33 -136.5q0 -72 37 -131t96 -100q-106 -43 -167.5 -123t-61.5 -197v-14h-518v-39zM743 494 q0 68 45.5 109.5t104.5 58.5l113 -56v-180h-242q-21 31 -21 68zM803 387h203v-106l-146 73l-31 16q-14 7 -26 17zM872 1022q0 23 14.5 37t35 21t43 10.5t39.5 3.5h2v-197q-59 29 -96.5 59.5t-37.5 65.5zM1042 -20q59 -29 95.5 -56.5t36.5 -62.5q0 -45 -42 -65.5t-90 -26.5 v211zM1042 262v125h265v-12q0 -70 -46.5 -112t-105.5 -60v2zM1042 426v160l148 -74q33 -16 61.5 -35.5t44.5 -50.5h-254z" />
<glyph unicode="&#xa8;" d="M-2 387h1008v-1005h36v1005h1008v39h-1008v1006h-36v-1006h-1008v-39zM733 881h225v225h-225v-225zM1085 881h230v225h-230v-225z" />
<glyph unicode="&#xa9;" d="M-2 387h274q8 -147 67.5 -276t158 -224.5t228.5 -150.5t280 -60v-294h36v294q150 2 280 58.5t228.5 152t157.5 223.5t68 277h274v39h-272v4q0 156 -56.5 292t-155 237.5t-233.5 161t-291 63.5v248h-36v-248q-156 -4 -291 -63.5t-233.5 -161t-155 -237.5t-56.5 -292v-4 h-272v-39zM461 426v4q0 119 39 226.5t110.5 188.5t172 131t223.5 54v-149q-90 -6 -163 -43t-124 -97.5t-78 -139.5t-27 -171v-4h-153zM463 387h153q6 -82 36 -152.5t81 -125t120 -88t153 -41.5v-150q-117 4 -213.5 49t-167 121t-113.5 175t-49 212zM803 426v2q0 51 12 101.5 t38 91.5t63.5 69.5t89.5 36.5v-301h-203zM805 387h201v-242q-86 16 -138.5 86t-62.5 156zM1042 -23h7q72 0 136 23t114.5 64.5t85 101t47.5 131.5h-179q-10 -84 -69.5 -120t-136.5 -36h-5v246h545q-6 -111 -49 -211t-114.5 -175t-168 -121t-213.5 -50v147zM1042 426v305h5 q76 0 133 -42t73 -120l179 2q-12 74 -47 131.5t-85.5 97.5t-115 61.5t-137.5 21.5h-5v147q121 -4 221.5 -54t173 -132t112.5 -188.5t40 -225.5v-4h-547z" />
<glyph unicode="&#xaa;" d="M-2 387h1008v-1005h36v1005h1008v39h-1008v57q29 10 56.5 22.5t52.5 31.5l14 -58h187q-14 23 -19.5 49.5t-5.5 55.5q0 111 8 205t-10 163.5t-80.5 110.5t-202.5 45v324h-36v-324q-47 -2 -96.5 -12.5t-90.5 -34t-66.5 -61t-25.5 -93.5l180 -6q-2 47 29 63.5t70 16.5v-111 q-53 -8 -108.5 -20t-100.5 -34.5t-73 -60.5t-28 -98q0 -47 18.5 -82.5t50.5 -60.5t73 -37t84 -12q45 0 84 8v-47h-1008v-39zM885 666q0 29 36.5 47t84.5 28v-131q-10 -2 -29 -2q-29 0 -60.5 10.5t-31.5 47.5zM1042 616v136q31 6 55.5 11t41.5 11v-61q0 -41 -30 -64t-67 -33z M1042 877v102q33 -4 65 -16.5t32 -47.5v-18q-23 -6 -46.5 -11t-50.5 -9z" />
<glyph unicode="&#xab;" d="M-2 387h696v-131l291 -227v233l-151 125h172v-1005h36v1005h23v-131l291 -227v233l-152 125h846v39h-838l144 119v233l-293 -227v-125h-21v1006h-36v-1006h-164l143 119v233l-293 -227v-125h-694v-39z" />
<glyph unicode="&#xac;" d="M-2 387h516v-86h492v-919h36v919h289v-412h203v498h516v39h-516v76h-492v930h-36v-930h-492v-76h-516v-39z" />
<glyph unicode="&#xad;" d="M-2 387h776v-96h232v-909h36v909h234v96h774v39h-776v90h-232v916h-36v-916h-234v-90h-774v-39z" />
<glyph unicode="&#xae;" d="M-2 387h274q8 -147 67.5 -276t158 -224.5t228.5 -150.5t280 -60v-294h36v294q150 2 280 58.5t228.5 152t157.5 223.5t68 277h274v39h-272v4q0 156 -56.5 292t-155 237.5t-233.5 161t-291 63.5v248h-36v-248q-156 -4 -291 -63.5t-233.5 -161t-155 -237.5t-56.5 -292v-4 h-272v-39zM461 426v4q0 119 39 226.5t110.5 188.5t172 131t223.5 54v-174h-277v-430h-268zM463 387h266v-381h164v354h90l23 -34v-496q-117 4 -213.5 49t-167 121t-113.5 175t-49 212zM893 500v217h113v-215zM1042 -170v432l158 -256h176l-221 361q25 2 45.5 7t40.5 13h346 q-6 -111 -49 -211t-114.5 -175t-168 -121t-213.5 -50zM1042 502v215q27 0 56.5 -4t53.5 -15.5t39 -32t15 -55.5q0 -37 -14 -58.5t-38 -31.5t-53.5 -14t-58.5 -4zM1042 856v174q121 -4 221.5 -54t173 -132t112.5 -188.5t40 -225.5v-4h-289q70 66 70 180q0 74 -24.5 123 t-67.5 77t-100.5 39t-120.5 11h-15z" />
<glyph unicode="&#xaf;" d="M733 926h582v141h-582v-141z" />
<glyph unicode="&#xb0;" d="M-2 387h1008v-1005h36v1005h1008v39h-1008v104q123 6 197 85t74 204t-74 203t-197 86v324h-36v-326q-123 -8 -197 -86t-74 -203q0 -123 74 -200.5t197 -86.5v-104h-1008v-39zM874 821q0 53 39 95t93 49v-289q-53 6 -92.5 49t-39.5 96zM1042 676v289q51 -8 89 -50.5 t38 -95.5q0 -51 -37 -92t-90 -51z" />
<glyph unicode="&#xb1;" d="M-2 387h516v-80h410v-270h82v-74h-492v-201h492v-380h36v380h492v201h-492v74h82v270h410v80h516v39h-516v84h-410v270h-82v652h-36v-652h-82v-270h-410v-84h-516v-39z" />
<glyph unicode="&#xb2;" d="M-2 387h713q-2 -14 -2 -29v-26q0 -29 10 -46.5t43 -17.5h244v-886h36v886h297v119h711v39h-713v8h-295v41q51 35 102.5 73t92.5 82t65.5 99t24.5 123q0 63 -22.5 110.5t-61.5 78t-91 47t-110 18.5v326h-36v-326q-141 -8 -218 -89t-77 -229l202 -10q0 27 2.5 55.5t11.5 51 t27.5 39t51.5 18.5v-317q-63 -59 -140.5 -107.5t-130.5 -91.5h-737v-39zM985 434v4l21 13v-17h-21zM1042 666v274q39 -10 55.5 -39t16.5 -72q0 -47 -19.5 -86.5t-52.5 -76.5z" />
<glyph unicode="&#xb3;" d="M-2 387h731q41 -66 112.5 -96.5t164.5 -34.5v-874h36v874q84 4 162 35t119 96h727v39h-709q6 18 10.5 37.5t4.5 42.5q0 86 -52.5 137t-129.5 68v4q70 16 114.5 57t44.5 117q0 57 -26.5 98t-68.5 66.5t-93 39t-103 13.5v326h-36v-328q-111 -6 -193 -63.5t-104 -176.5 l198 -33q0 47 28 74t71 33v-160h-7h-41v-153h48v-199h-31q-41 10 -67.5 38t-26.5 75h-189q0 -33 5 -60.5t16 -52.5h-715v-39zM1042 426v197q41 -4 71 -22.5t30 -68.5q0 -47 -23.5 -71.5t-60.5 -34.5h-17zM1042 780v160q35 -4 63 -22.5t28 -59.5t-28 -57.5t-63 -20.5z" />
<glyph unicode="&#xb4;" d="M-2 387h1008v-1005h36v1005h1008v39h-1008v510l209 211h-209v285h-36v-285h-25l-184 -291h170l39 39v-469h-1008v-39z" />
<glyph unicode="&#xb5;" d="M-2 387h569v-999h242v338q29 -23 62.5 -30t68.5 -7q16 0 32.5 1t33.5 3v-311h36v319q55 12 104.5 40t84.5 73h4v-101h246v674h569v39h-569v305h-246v-305h-193v1006h-36v-1006h-193v305h-246v-305h-569v-39zM813 129v258h193v-459h-13q-100 -2 -140 51.5t-40 149.5z M1042 -68v455h193v-203q0 -102 -48.5 -169t-144.5 -83z" />
<glyph unicode="&#xb6;" d="M-2 387h944v-899h64v-106h36v106h78v899h232v-899h176v899h522v39h-522v721h-486v285h-36v-285h-23q-96 0 -182 -17.5t-150.5 -60.5t-103.5 -115.5t-39 -181.5q0 -74 23.5 -131t64.5 -100t96.5 -72t116.5 -43h-811v-39zM1120 426v567h232v-567h-232z" />
<glyph unicode="&#xb7;" d="M-2 387h876q10 -47 46 -83t86 -42v-880h36v880q49 6 85 42t47 83h876v39h-874q-4 53 -42 92t-92 47v867h-36v-867q-53 -6 -91 -46t-43 -93h-874v-39z" />
<glyph unicode="&#x2219;" d="M-2 387h876q10 -47 46 -83t86 -42v-880h36v880q49 6 85 42t47 83h876v39h-874q-4 53 -42 92t-92 47v867h-36v-867q-53 -6 -91 -46t-43 -93h-874v-39z" />
<glyph unicode="&#xb8;" d="M797 -688q51 -23 100 -37t107 -14q45 0 89 11t78.5 33.5t57 59.5t22.5 86q0 70 -51 112t-117 42q-18 0 -34.5 -1t-32.5 -10l-2 5l88 114h-96l-134 -176l43 -37q33 12 72 13q35 2 66.5 -13.5t31.5 -56.5q0 -25 -11 -41t-28.5 -24.5t-38 -11.5t-40.5 -3q-35 0 -68 10 l-65 21z" />
<glyph unicode="&#xb9;" d="M-2 387h954v-119h54v-886h36v886h101v119h907v39h-907v668h-101v338h-36v-338h-19q-14 -47 -37.5 -75t-55.5 -41t-71 -16.5t-82 -3.5v-129q27 0 63 4.5t68.5 1t56 -19.5t23.5 -57v-332h-954v-39z" />
<glyph unicode="&#xba;" d="M-2 387h1008v-1005h36v1005h1008v39h-1008v39q70 2 131.5 24.5t105.5 63.5t69.5 99.5t25.5 133.5q0 74 -25.5 132.5t-69.5 99.5t-105.5 62.5t-131.5 25.5v326h-36v-326q-72 -4 -132.5 -25.5t-104.5 -62.5t-69.5 -99.5t-25.5 -132.5q0 -76 25.5 -134t69.5 -99t104.5 -63.5 t132.5 -24.5v-39h-1008v-39zM862 784v2q0 61 41 109.5t103 56.5v-331q-61 8 -102.5 55t-41.5 108zM1042 621v331q59 -8 99.5 -56t40.5 -108q2 -63 -38.5 -112t-101.5 -55z" />
<glyph unicode="&#xbb;" d="M-2 387h846l-152 -125v-233l293 227v131h21v-1005h36v1005h172l-151 -125v-233l293 227v131h694v39h-696v125l-291 227v-233l143 -119h-164v1006h-36v-1006h-23v125l-291 227v-233l144 -119h-838v-39z" />
<glyph unicode="&#xbc;" d="M-2 387h479v-119h189v119h219l-414 -749h174l361 653v-909h36v978l17 27h319l-276 -373v-131h387v-170h188v170h107v152h-107v352h373v39h-373v113h-186l-84 -113h-328l404 733h-174l-267 -481v754h-36v-826l-101 -180h-239v668h-156q-14 -47 -37.5 -75t-55.5 -41 t-71 -16.5t-82 -3.5v-129q27 0 62.5 4.5t68.5 1t56.5 -19.5t23.5 -57l2 -332h-479v-39zM1280 35l205 284h4v-284h-209z" />
<glyph unicode="&#xbd;" d="M-2 387h479v-119h189v119h198l-413 -749h174l381 690v-946h36v1005h142q-29 -68 -29 -154l201 -10q0 27 3 55.5t13 52t30.5 39t55.5 15.5q53 0 75.5 -30.5t22.5 -82.5q0 -70 -43 -127t-103 -106t-125.5 -92t-110.5 -80q-20 -16 -21 -43v-49q0 -27 10.5 -44.5t40.5 -17.5 h580v166h-352v4q57 37 117.5 78t109.5 89t81 108.5t32 138.5q0 25 -4.5 47.5t-10.5 42.5h293v39h-311q-37 63 -106.5 94t-153.5 31q-197 0 -275 -125h-145l403 733h-174l-246 -444v717h-36v-789l-121 -217h-219v668h-156q-14 -47 -37.5 -75t-55.5 -41t-71 -16.5t-82 -3.5 v-129q27 0 62.5 4.5t68.5 1t56.5 -19.5t23.5 -57l2 -332h-479v-39z" />
<glyph unicode="&#xbe;" d="M-2 387h303q41 -70 117 -100.5t174 -30.5q88 0 174 29.5t131 101.5h104l-413 -749h174l244 440v-696h36v768l134 237h202l-276 -373v-131h387v-170h188v170h107v152h-107v352h373v39h-373v113h-186l-84 -113h-211l403 733h-174l-383 -694v967h-36v-1006h-91q12 37 13 80 q0 86 -51.5 137t-128.5 68l-3 4q68 16 113 57t45 117q0 57 -25.5 99t-67.5 67.5t-94 38t-104 12.5q-61 0 -115.5 -14.5t-98.5 -43t-73.5 -74.5t-41.5 -110l196 -33q-2 51 32 79t85 30q41 0 75 -17.5t34 -64.5q0 -29 -12.5 -44t-32 -23.5t-43 -10.5t-44.5 -2h-41v-153h60 q33 0 59.5 -8.5t45 -28t18.5 -56.5q0 -47 -23.5 -71.5t-60.5 -34.5h-84q-41 10 -66.5 38t-25.5 75h-191q0 -63 19 -113h-285v-39zM1280 35l205 284h4v-284h-209z" />
<glyph unicode="&#xbf;" d="M-2 387h897q-12 -74 -44 -121t-72 -80.5t-83 -63.5t-78.5 -70t-59 -98t-23.5 -151q0 -102 39.5 -181t105 -134t153 -84t181.5 -29q111 0 201 33t154.5 95.5t102 150.5t41.5 199l-245 34q-2 -53 -15.5 -102t-41 -86t-69.5 -60.5t-100 -25.5v473q37 41 60.5 104.5 t23.5 171.5v25h924v39h-924v51h-84v90h107v277h-107v588h-36v-588h-127v-277h127v-90h-105v-26q0 -12 -2 -25h-901v-39zM817 -188q0 55 17.5 88.5t44 58.5t60.5 44.5t67 45.5v-434q-78 8 -133.5 60.5t-55.5 136.5z" />
<glyph unicode="&#xc0;" d="M-2 387h489q-66 -53 -105.5 -132t-39.5 -189q0 -92 40 -165t104.5 -125t147.5 -80t167 -28q106 0 205 31v-317h36v329q147 53 254 166q25 -98 86.5 -142t159.5 -44q41 0 82 7t82 17v203l-84 -2q-33 0 -51.5 13.5t-27.5 36t-11 49t-2 51.5v321h520v39h-522v293 q0 111 -37 189.5t-99.5 131t-146.5 80t-176 37.5l-27 39v236h-36v-175l-93 146h-264l238 -242q-96 -8 -182.5 -42t-152 -92t-104 -142t-38.5 -193v-8l260 -16q0 143 66.5 215.5t211.5 72.5h29q14 0 29 -2v-403q-123 -12 -245 -39t-218 -86h-545v-39zM618 82q0 61 34 105 t89.5 76t124 53.5t140.5 33.5v-459q-61 -16 -125 -16q-49 0 -96.5 11.5t-84 36t-59.5 64.5t-23 95zM1042 -96v454q61 10 116.5 17.5t96.5 11.5h13l2 -154q2 -125 -61 -208.5t-167 -120.5zM1042 555v397q111 -14 168.5 -72.5t57.5 -197.5v-113q-51 -4 -108 -7t-118 -7z" />
<glyph unicode="&#xc1;" d="M-2 387h489q-66 -53 -105.5 -132t-39.5 -189q0 -92 40 -165t104.5 -125t147.5 -80t167 -28q106 0 205 31v-317h36v329q147 53 254 166q25 -98 86.5 -142t159.5 -44q41 0 82 7t82 17v203l-84 -2q-33 0 -51.5 13.5t-27.5 36t-11 49t-2 51.5v321h520v39h-522v293 q0 115 -39 194.5t-105.5 132t-154.5 79t-187 34.5v35l234 236h-234v2h-36v-11l-170 -266q-88 -14 -165 -50t-135.5 -94.5t-92 -138t-33.5 -180.5v-8l260 -16q0 143 66.5 215.5t211.5 72.5h29q14 0 29 -2v-403q-123 -12 -245 -39t-218 -86h-545v-39zM618 82q0 61 34 105 t89.5 76t124 53.5t140.5 33.5v-459q-61 -16 -125 -16q-49 0 -96.5 11.5t-84 36t-59.5 64.5t-23 95zM1042 -96v454q61 10 116.5 17.5t96.5 11.5h13l2 -154q2 -125 -61 -208.5t-167 -120.5zM1042 555v397q111 -14 168.5 -72.5t57.5 -197.5v-113q-51 -4 -108 -7t-118 -7z" />
<glyph unicode="&#xc2;" d="M-2 387h489q-66 -53 -105.5 -132t-39.5 -189q0 -92 40 -165t104.5 -125t147.5 -80t167 -28q106 0 205 31v-317h36v329q147 53 254 166q25 -98 86.5 -142t159.5 -44q41 0 82 7t82 17v203l-84 -2q-33 0 -51.5 13.5t-27.5 36t-11 49t-2 51.5v321h520v39h-522v293 q0 96 -27.5 167.5t-77 122t-115 83t-141.5 49.5h172l-211 284h-86v7h-36v-7h-99l-213 -284h78q-78 -20 -143.5 -58.5t-114.5 -94.5t-76.5 -130t-27.5 -166v-8l260 -16q0 143 66.5 215.5t211.5 72.5h29q14 0 29 -2v-403q-123 -12 -245 -39t-218 -86h-545v-39zM618 82 q0 61 34 105t89.5 76t124 53.5t140.5 33.5v-459q-61 -16 -125 -16q-49 0 -96.5 11.5t-84 36t-59.5 64.5t-23 95zM893 1161l113 135v-135q-14 2 -29 2h-27h-28q-15 0 -29 -2zM1042 -96v454q61 10 116.5 17.5t96.5 11.5h13l2 -154q2 -125 -61 -208.5t-167 -120.5zM1042 555 v397q111 -14 168.5 -72.5t57.5 -197.5v-113q-51 -4 -108 -7t-118 -7zM1042 1159v123l113 -137q-29 4 -56.5 8t-56.5 6z" />
<glyph unicode="&#xc3;" d="M-2 387h489q-66 -53 -105.5 -132t-39.5 -189q0 -92 40 -165t104.5 -125t147.5 -80t167 -28q106 0 205 31v-317h36v329q147 53 254 166q25 -98 86.5 -142t159.5 -44q41 0 82 7t82 17v203l-84 -2q-33 0 -51.5 13.5t-27.5 36t-11 49t-2 51.5v321h520v39h-522v293 q0 115 -39 194.5t-105.5 132t-154.5 79t-187 34.5v43q49 -16 95 -16q45 0 80.5 22.5t61.5 56t41 75.5t19 81h-110q-10 -39 -32.5 -62.5t-66.5 -23.5q-23 0 -44 5.5t-44 15.5v76h-36v-62q-39 16 -78 29.5t-82 13.5q-45 0 -81 -22.5t-61.5 -56.5t-41 -75.5t-21.5 -80.5h111 q10 39 32.5 62.5t67.5 23.5q37 0 75 -14.5t79 -30.5v-58q-14 2 -29 2h-27q-106 0 -203.5 -29.5t-172 -88t-119.5 -147.5t-45 -206v-8l260 -16q0 143 66.5 215.5t211.5 72.5h29q14 0 29 -2v-403q-123 -12 -245 -39t-218 -86h-545v-39zM618 82q0 61 34 105t89.5 76t124 53.5 t140.5 33.5v-459q-61 -16 -125 -16q-49 0 -96.5 11.5t-84 36t-59.5 64.5t-23 95zM1042 -96v454q61 10 116.5 17.5t96.5 11.5h13l2 -154q2 -125 -61 -208.5t-167 -120.5zM1042 555v397q111 -14 168.5 -72.5t57.5 -197.5v-113q-51 -4 -108 -7t-118 -7z" />
<glyph unicode="&#xc4;" d="M-2 387h465q-61 -53 -97 -131t-36 -184q0 -92 41 -167t106.5 -127t149.5 -81t170 -29h4h28q14 0 29 2h2q37 4 74 10.5t72 16.5v-315h36v329q141 49 254 162q51 -182 246 -182h6h4q41 0 82 7t82 17l2 205h-88q-33 0 -51 14.5t-27.5 36t-11.5 48t-2 51.5v317h512v39h-512 v309q0 117 -40 199t-108.5 135t-158.5 80t-189 35v248h-36v-246q-10 2 -21 2h-20v221h-222v-223h148q-98 -8 -188.5 -42t-158 -93.5t-107.5 -144.5t-40 -195l2 -11h11v-8v-8l260 -16q0 143 66.5 215.5t211.5 72.5h29q14 0 29 -2v-389q-133 -12 -262.5 -42.5t-229.5 -96.5 h-516v-39zM618 82q0 61 34 105t89.5 76t124 53.5t140.5 33.5v-456q-66 -16 -129 -17q-49 0 -97.5 11.5t-85.5 37.5q-35 25 -55.5 64t-20.5 92zM1042 -94v452q61 10 116.5 17.5t96.5 11.5h13l2 -154v-24q0 -12 -2 -25q-16 -104 -76 -173.5t-150 -104.5zM1042 569v383 q111 -14 168.5 -72.5t57.5 -197.5v-98q-51 -4 -109 -7.5t-117 -7.5zM1090 1186h221v223h-221v-223z" />
<glyph unicode="&#xc5;" d="M-2 387h465q-61 -53 -97 -131t-36 -184q0 -92 41 -167t106.5 -127t149.5 -81t170 -29h4h28q14 0 29 2h2q37 4 74 10.5t72 16.5v-315h36v329q141 49 254 162q51 -182 246 -182h6h4q41 0 82 7t82 17l2 205h-88q-33 0 -51 14.5t-27.5 36t-11.5 48t-2 51.5v317h512v39h-512 v309q0 92 -24.5 162t-68.5 120t-104.5 84t-130.5 54q20 45 21 88q0 41 -16.5 78t-44 65.5t-64.5 45t-78 16.5h-2q-41 0 -78 -16.5t-65.5 -45t-45 -65.5t-16.5 -76q0 -35 13 -65q-90 -14 -169 -51t-138.5 -95.5t-94.5 -139.5t-35 -183l2 -11h11v-8v-8l260 -16 q0 143 66.5 215.5t211.5 72.5h29q14 0 29 -2v-389q-133 -12 -262.5 -42.5t-229.5 -96.5h-516v-39zM618 82q0 61 34 105t89.5 76t124 53.5t140.5 33.5v-456q-66 -16 -129 -17q-49 0 -97.5 11.5t-85.5 37.5q-35 25 -55.5 64t-20.5 92zM913 1243q0 41 27 72t66 41v-170 q-14 2 -29 2h-27h-22q-15 28 -15 55zM1042 -94v452q61 10 116.5 17.5t96.5 11.5h13l2 -154v-24q0 -12 -2 -25q-16 -104 -76 -173.5t-150 -104.5zM1042 569v383q111 -14 168.5 -72.5t57.5 -197.5v-98q-51 -4 -109 -7.5t-117 -7.5zM1042 1184v174q43 -6 72 -39t29 -76 q0 -39 -23 -67q-18 4 -38 5t-40 3z" />
<glyph unicode="&#xc6;" d="M-2 387h408l-398 -674h318l190 338h490v-669h36v331h945v250h-711v371h598v53h176v39h-178v145h-596v326h692v250h-926v285h-36v-285h-156l-422 -721h-430v-39zM647 289l55 98h304v-98h-359zM725 426l279 496h2v-496h-281z" />
<glyph unicode="&#xc7;" d="M-2 387h397q4 -131 41 -247.5t104.5 -209t165 -155t222.5 -84.5l-29 -39l41 -35q31 12 66 12v-149h-15q-35 0 -66.5 10t-64.5 21l-35 -80q49 -23 98.5 -37.5t104.5 -14.5q43 0 86 10.5t78 34t57.5 58.5t22.5 84q0 41 -19.5 72.5t-50.5 50.5q164 31 274.5 135t176.5 272 l-242 113q-37 -123 -121 -204t-219 -81h-29v463h1008v39h-1008v487h29q57 0 110.5 -19.5t95.5 -54t69.5 -82.5t35.5 -108l254 66q-47 215 -197.5 328.5t-367.5 113.5h-29v275h-36v-279q-141 -12 -254 -75.5t-192 -162t-121 -224.5t-44 -265h-397v-39zM674 387h332v-457 q-84 12 -144.5 55.5t-100.5 106t-61.5 139t-25.5 156.5zM674 426q0 84 20.5 165t60.5 146.5t102.5 111.5t148.5 60v-483h-332zM1042 -373q27 -6 46.5 -21.5t19.5 -47.5q0 -33 -18.5 -49.5t-47.5 -22.5v141z" />
<glyph unicode="&#xc8;" d="M-2 387h348q2 -145 47 -275t130 -228.5t207 -157t276 -60.5v-284h36v284q240 6 408 128t238 358l2 10l-265 35q-4 -74 -38.5 -133.5t-89 -100.5t-122 -63.5t-133.5 -22.5v473l656 4h2v33h350v39h-348q0 12 1 25.5t1 25.5q0 135 -38 251t-109.5 205t-174 146.5 t-229.5 77.5l-111 174v101h-36v-41l-31 47h-264l270 -275q-162 -8 -280.5 -65.5t-196.5 -154.5t-117 -229t-41 -288h-348v-39zM631 563q6 78 34.5 147.5t75.5 123t114 85t151 31.5v-387h-375zM635 346l371 2v-469q-94 6 -164 47t-116 103.5t-68.5 144.5t-22.5 172zM1042 565 v383q82 -6 146.5 -35.5t111 -80t76 -119t41.5 -148.5h-375z" />
<glyph unicode="&#xc9;" d="M-2 387h348q2 -145 47 -275t130 -228.5t207 -157t276 -60.5v-284h36v284q240 6 408 128t238 358l2 10l-265 35q-4 -74 -38.5 -133.5t-89 -100.5t-122 -63.5t-133.5 -22.5v473l656 4h2v33h350v39h-348q0 12 1 25.5t1 25.5q0 143 -43 264t-122 211t-191.5 145.5 t-253.5 65.5l260 264h-264l-48 -73v78h-36v-140l-86 -133q-145 -16 -253 -77.5t-178.5 -157t-105.5 -222.5t-37 -276h-348v-39zM631 563q6 78 34.5 147.5t75.5 123t114 85t151 31.5v-387h-375zM635 346l371 2v-469q-94 6 -164 47t-116 103.5t-68.5 144.5t-22.5 172z M1042 565v383q82 -6 146.5 -35.5t111 -80t76 -119t41.5 -148.5h-375z" />
<glyph unicode="&#xca;" d="M-2 387h348q2 -145 47 -275t130 -228.5t207 -157t276 -60.5v-284h36v284q240 6 408 128t238 358l2 10l-265 35q-4 -74 -38.5 -133.5t-89 -100.5t-122 -63.5t-133.5 -22.5v473l656 4h2v33h350v39h-348q0 12 1 25.5t1 25.5q0 127 -34 236.5t-96.5 195.5t-151.5 145.5 t-201 88.5h118l-211 284h-86v5h-36v-5h-99l-213 -284h133q-123 -29 -212 -93.5t-148 -157.5t-89 -211t-32 -255h-348v-39zM631 563q6 78 34.5 147.5t75.5 123t114 85t151 31.5v-387h-375zM635 346l371 2v-469q-94 6 -164 47t-116 103.5t-68.5 144.5t-22.5 172zM885 1155 l121 145v-135q-33 -2 -62.5 -4t-58.5 -6zM1042 565v383q82 -6 146.5 -35.5t111 -80t76 -119t41.5 -148.5h-375zM1042 1165v117l103 -125q-25 4 -49.5 6t-53.5 2z" />
<glyph unicode="&#xcb;" d="M-2 387h348q2 -145 47 -275t130 -228.5t207 -157t276 -60.5v-284h36v284q240 6 408 128t238 358l2 10l-265 35q-4 -74 -38.5 -133.5t-89 -100.5t-122 -63.5t-133.5 -22.5v473l656 4h2v33h350v39h-348q0 12 1 25.5t1 25.5q0 150 -47 276t-133 217t-208 142t-274 53v267 h-36v-267q-168 -4 -291 -60t-204 -153.5t-122 -231.5t-43 -294h-348v-39zM631 563q6 78 34.5 147.5t75.5 123t114 85t151 31.5v-387h-375zM635 346l371 2v-469q-94 6 -164 47t-116 103.5t-68.5 144.5t-22.5 172zM741 1204h224v221h-224v-221zM1042 565v383 q82 -6 146.5 -35.5t111 -80t76 -119t41.5 -148.5h-375zM1087 1204h224v221h-224v-221z" />
<glyph unicode="&#xcc;" d="M-2 387h897v-674h111v-331h36v331h117v674h891v39h-893v696h-115v33h136l-136 211v66h-36v-5l-11 13h-264l275 -277v-41h-113v-696h-895v-39z" />
<glyph unicode="&#xcd;" d="M-2 387h881v-674h127v-331h36v331h101v674h907v39h-907v696h-101v60l250 252h-266v-2h-20v-33l-160 -250h160v-27h-127v-696h-881v-39z" />
<glyph unicode="&#xce;" d="M-2 387h893v-674h115v-331h36v331h113v674h895v39h-897v696h-111v154l117 -141h182l-213 284h-86v13h-36v-13h-101l-211 -284h185l127 155v-168h-117v-696h-891v-39z" />
<glyph unicode="&#xcf;" d="M-2 387h893v-674h115v-331h36v331h113v674h895v39h-895v696h-113v310h-36v-310h-115v-696h-893v-39zM739 1178h224v223h-224v-223zM1087 1178h222v223h-222v-223z" />
<glyph unicode="&#xd0;" d="M-2 387h354v-18h137v-656h517v-331h36v331q166 0 287 48.5t201 136.5t121 211.5t45 277.5h354v39h-354v4q0 150 -42 281t-125 227t-205 151.5t-282 55.5v287h-36v-287l-519 2v-588h-137v-133h-352v-39zM350 387v39h656v133h36v-133h80v-39h-80v-18h-36v18h-656zM758 -37 v406h248v-406h-5h-243zM758 559v338h248v-338h-248zM1004 897l2 248h38l-2 -250q-10 2 -20 2h-18zM1006 -37h36v-250h-36v250zM1042 -37v406h80v18h291q-2 -98 -20.5 -175t-61.5 -130t-113 -83t-176 -36zM1042 559v336q100 -6 171 -43t116 -98.5t65.5 -143.5t20.5 -180 l-2 -4h-293v133h-78zM1413 387v39h283v-39h-283z" />
<glyph unicode="&#xd1;" d="M-2 387h440v-684h262l-2 684h308v-1005h36v1005h310v-684h260v684h438v39h-440v213q0 252 -123 388t-381 136q-16 0 -31.5 -1t-32.5 -3v66q29 -10 56.5 -16.5t60.5 -6.5q45 0 82 20.5t64.5 52.5t45 71.5t21.5 78.5h-110q-10 -39 -33 -62.5t-66 -23.5q-29 0 -59.5 10.5 t-61.5 22.5v60h-36v-43q-31 12 -62 20t-65 8q-45 0 -81 -22.5t-61.5 -56t-41 -75.5t-21.5 -81h110q10 39 33 62.5t68 23.5q31 0 60.5 -9.5t60.5 -19.5v-86q-188 -35 -308 -195v170h-262v-702h-438v-39zM698 426v135q-2 152 82 246t226 111v-492h-308zM1042 426v496h25 q154 0 219.5 -79t65.5 -227v-190h-310z" />
<glyph unicode="&#xd2;" d="M-2 387h352q4 -141 51.5 -268t132 -223.5t203.5 -154.5t269 -63v-296h36v296q150 4 269 61.5t203.5 155t132 224.5t51.5 268h352v39h-352q0 131 -38 251t-106.5 216t-169 161.5t-225.5 90.5h19l-136 213v74h-36v-13l-9 11h-264l271 -273q-152 -4 -273 -64.5t-205 -161 t-130 -230.5t-46 -275h-352v-39zM627 387h379v-461q-96 4 -166 45t-116 104.5t-69.5 144.5t-27.5 167zM627 426q0 88 21.5 174t67.5 154.5t117.5 111.5t172.5 47v-487h-379zM1042 -74v461h377q-4 -86 -27.5 -167t-69.5 -145.5t-116 -104.5t-164 -44zM1042 426v487 q98 -4 170 -47t118 -110.5t67.5 -153.5t21.5 -176h-377z" />
<glyph unicode="&#xd3;" d="M-2 387h352q4 -141 51.5 -268t132 -223.5t203.5 -154.5t269 -63v-296h36v296q150 4 269 61.5t203.5 155t132 224.5t51.5 268h352v39h-352q0 143 -45 274t-128 230.5t-203 160t-269 66.5l274 277h-266l-19 -27v25h-36v-86l-125 -197h32q-131 -20 -235.5 -86t-177 -162 t-111.5 -218t-39 -257h-352v-39zM627 387h379v-461q-96 4 -166 45t-116 104.5t-69.5 144.5t-27.5 167zM627 426q0 88 21.5 174t67.5 154.5t117.5 111.5t172.5 47v-487h-379zM1042 -74v461h377q-4 -86 -27.5 -167t-69.5 -145.5t-116 -104.5t-164 -44zM1042 426v487 q98 -4 170 -47t118 -110.5t67.5 -153.5t21.5 -176h-377z" />
<glyph unicode="&#xd4;" d="M-2 387h352q4 -141 51.5 -268t132 -223.5t203.5 -154.5t269 -63v-296h36v296q150 4 269 61.5t203.5 155t132 224.5t51.5 268h352v39h-352q0 127 -35 243.5t-100.5 212t-160.5 162t-214 95.5h158l-213 284h-91v9h-36v-9h-97l-211 -284h164q-121 -29 -215 -95.5 t-159.5 -162t-101.5 -212t-36 -243.5h-352v-39zM627 387h379v-461q-96 4 -166 45t-116 104.5t-69.5 144.5t-27.5 167zM627 426q0 88 21.5 174t67.5 154.5t117.5 111.5t172.5 47v-487h-379zM887 1143l119 145v-131q-33 -2 -61.5 -5t-57.5 -9zM1042 -74v461h377 q-4 -86 -27.5 -167t-69.5 -145.5t-116 -104.5t-164 -44zM1042 426v487q98 -4 170 -47t118 -110.5t67.5 -153.5t21.5 -176h-377zM1042 1157v129l115 -141q-56 10 -115 12z" />
<glyph unicode="&#xd5;" d="M-2 387h352q4 -141 51.5 -268t132 -223.5t203.5 -154.5t269 -63v-296h36v296q150 4 269 61.5t203.5 155t132 224.5t51.5 268h352v39h-352q0 145 -46 276.5t-130 231.5t-206 159.5t-274 63.5v55q35 -16 71 -27t77 -9q45 0 81 22.5t61.5 56t41 75.5t21.5 81h-111 q-10 -39 -32.5 -62.5t-67.5 -23.5q-35 0 -70 12.5t-72 28.5v66h-36v-52q-27 10 -52.5 16.5t-54.5 6.5q-45 0 -81 -22.5t-61.5 -56.5t-41 -76t-21.5 -81h113q10 39 32.5 62.5t65.5 23.5q25 0 49.5 -7t51.5 -17v-72q-152 -4 -274 -63.5t-206 -159.5t-130 -231.5t-46 -276.5 h-352v-39zM627 387h379v-461q-96 4 -166 45t-116 104.5t-69.5 144.5t-27.5 167zM627 426q0 88 21.5 174t67.5 154.5t117.5 111.5t172.5 47v-487h-379zM1042 -74v461h377q-4 -86 -27.5 -167t-69.5 -145.5t-116 -104.5t-164 -44zM1042 426v487q98 -4 170 -47t118 -110.5 t67.5 -153.5t21.5 -176h-377z" />
<glyph unicode="&#xd6;" d="M-2 387h352q4 -141 51.5 -268t132 -223.5t203.5 -154.5t269 -63v-296h36v296q150 4 269 61.5t203.5 155t132 224.5t51.5 268h352v39h-352q0 145 -46 276.5t-130 231.5t-206 159.5t-274 63.5v275h-36v-275q-152 -4 -274 -63.5t-206 -159.5t-130 -231.5t-46 -276.5h-352 v-39zM627 387h379v-461q-96 4 -166 45t-116 104.5t-69.5 144.5t-27.5 167zM627 426q0 88 21.5 174t67.5 154.5t117.5 111.5t172.5 47v-487h-379zM758 1182h221v223h-221v-223zM1042 -74v461h377q-4 -86 -27.5 -167t-69.5 -145.5t-116 -104.5t-164 -44zM1042 426v487 q98 -4 170 -47t118 -110.5t67.5 -153.5t21.5 -176h-377zM1104 1182h223v223h-223v-223z" />
<glyph unicode="&#xd7;" d="M-2 387h862l-311 -311l141 -144l316 316v-866h36v864l314 -314l143 144l-311 311h862v39h-864l313 315l-143 142l-314 -314v863h-36v-863l-316 314l-141 -142l313 -315h-864v-39z" />
<glyph unicode="&#xd8;" d="M-2 387h342q4 -92 27.5 -182t70.5 -172v-2l-143 -127l129 -133l123 108q90 -96 208.5 -147t250.5 -56v-294h36v294q150 2 272 60.5t208 155t135 224.5t55 271h338v39h-338v4q0 104 -23.5 206.5t-74.5 194.5l139 125l-127 134l-121 -109q-92 98 -211.5 148.5t-251.5 54.5 v248h-36v-248q-156 -4 -279 -66.5t-209 -165t-132 -237.5t-46 -285v-4h-342v-39zM618 426v4q0 92 23 180t70 159t119.5 116t175.5 49v-391l-132 -117h-256zM621 387h210l-182 -162q-26 80 -28 162zM737 53h2l267 236v-359q-78 4 -148 34t-121 89zM1042 -70v394l72 63h313 q-4 -86 -28.5 -166t-71.5 -143.5t-118 -103.5t-167 -44zM1042 578v356q78 -4 146.5 -33t120.5 -88zM1157 426l242 215q31 -102 31 -211v-4h-273z" />
<glyph unicode="&#xd9;" d="M-2 387h457v-240q0 -119 46 -205.5t122.5 -144t176 -87t206.5 -32.5v-296h36v296q106 2 206 32t176.5 87.5t122.5 144.5t46 205v240h457v39h-457v696h-266v-696h-285v715h152l-152 237v54h-36v-7h-258l258 -260v-739h-285v696h-264l-2 -696h-457v-39zM721 215v172h285 v-453q-139 4 -212 69t-73 212zM1042 -66v453h285v-172q0 -147 -73 -212t-212 -69z" />
<glyph unicode="&#xda;" d="M-2 387h457v-240q0 -119 46 -205.5t122.5 -144t176 -87t206.5 -32.5v-296h36v296q106 2 206 32t176.5 87.5t122.5 144.5t46 205v240h457v39h-457v696h-266v-696h-285v737l269 271h-264l-5 -4v2h-36v-64l-140 -219h140v-723h-285v696h-264l-2 -696h-457v-39zM721 215v172 h285v-453q-139 4 -212 69t-73 212zM1042 -66v453h285v-172q0 -147 -73 -212t-212 -69z" />
<glyph unicode="&#xdb;" d="M-2 387h457v-240q0 -119 46 -205.5t122.5 -144t176 -87t206.5 -32.5v-296h36v296q106 2 206 32t176.5 87.5t122.5 144.5t46 205v240h457v39h-457v696h-266v-696h-285v852l121 -143h183l-213 284h-91v13h-36v-13h-95l-213 -284h183l125 151v-860h-285v696h-264l-2 -696 h-457v-39zM721 215v172h285v-453q-139 4 -212 69t-73 212zM1042 -66v453h285v-172q0 -147 -73 -212t-212 -69z" />
<glyph unicode="&#xdc;" d="M-2 387h457v-240q0 -119 46 -205.5t122.5 -144t176 -87t206.5 -32.5v-296h36v296q106 2 206 32t176.5 87.5t122.5 144.5t46 205v240h457v39h-457v696h-266v-696h-285v1006h-36v-1006h-285v696h-264l-2 -696h-457v-39zM721 215v172h285v-453q-139 4 -212 69t-73 212z M750 1157h221v223h-221v-223zM1042 -66v453h285v-172q0 -147 -73 -212t-212 -69zM1096 1157h221v223h-221v-223z" />
<glyph unicode="&#xdd;" d="M-2 387h827l68 -123v-551h113v-331h36v331h115v551l66 123h827v39h-805l381 696h-297l-287 -542v637h5l282 284h-268l-43 -69h-12v-21l-125 -194h125v-642l-289 547h-295l381 -696h-805v-39z" />
<glyph unicode="&#xde;" d="M-2 387h491v-674h271v271q59 0 121.5 -1t124.5 3v-604h36v606q96 6 185.5 24.5t158 62.5t114.5 119.5t56 192.5h494v39h-491v33q0 141 -42 229t-113 140.5t-164 74t-198 27.5v502h-36v-500q-61 4 -124 3t-124 -1v213h-271v-721h-489v-39zM758 209v178h248v-178h-248z M758 426v283h248v-283h-248zM1042 209v178h230q-18 -82 -78 -128t-152 -50zM1042 426v283q238 -10 238 -250q-2 -8 -2 -17v-16h-236z" />
<glyph unicode="&#xdf;" d="M-2 387h833q4 -25 18.5 -50.5t36 -46t46 -32.5t49.5 -12q16 0 25 2v-866h36v878q27 10 51.5 25.5t48 29t47 23.5t48.5 10q35 0 57.5 -26.5t22.5 -57.5q0 -25 -8.5 -47t-16.5 -46t-15 -46.5t-7 -46.5q0 -78 55 -128t131 -50q53 0 101.5 23.5t82.5 60.5l-38 36 q-29 -29 -68 -49t-82 -20q-20 0 -43 7t-41 20.5t-30.5 32t-12.5 42.5q0 25 10.5 50.5t21.5 51t21.5 52t10.5 55.5q0 35 -17.5 67.5t-46.5 57.5h725v39h-1008v1006h-36v-713q-47 49 -125 71.5t-138 22.5q-49 0 -98 -10t-92 -35l213 180l-86 90l-313 -311l303 -301h-672v-39z M604 641q29 29 70 43t82 14q20 0 49 -6t54.5 -18t44 -31.5t18.5 -46.5q0 -23 -12.5 -42t-28 -38.5t-29.5 -42t-21 -47.5h-141l76 80zM940 387h66v-53h-2q-23 0 -41.5 15t-22.5 38zM942 426q8 25 26.5 49.5t37.5 52.5v-102h-64zM1042 342v45h80q-20 -12 -40 -24.5t-40 -20.5z " />
<glyph unicode="&#xe0;" d="M-2 387h1008v-1005h36v1005h1008v39h-1008v1006h-36v-1006h-1008v-39z" />
<glyph unicode="&#xe1;" d="M-2 387h1008v-1005h36v1005h1008v39h-1008v1006h-36v-1006h-1008v-39z" />
<glyph unicode="&#xe2;" d="M-2 387h1008v-1005h36v1005h1008v39h-1008v1006h-36v-1006h-1008v-39z" />
<glyph unicode="&#xe3;" d="M-2 387h1008v-1005h36v1005h1008v39h-1008v1006h-36v-1006h-1008v-39z" />
<glyph unicode="&#xe4;" d="M-2 387h465q-61 -53 -97 -131t-36 -184q0 -92 41 -167t106.5 -127t149.5 -81t170 -29h4h28q14 0 29 2h2q37 4 74 10.5t72 16.5v-315h36v329q141 49 254 162q51 -182 246 -182h6h4q41 0 82 7t82 17l2 205h-88q-33 0 -51 14.5t-27.5 36t-11.5 48t-2 51.5v317h512v39h-512 v309q0 117 -40 199t-108.5 135t-158.5 80t-189 35v248h-36v-246q-10 2 -21 2h-20v221h-222v-223h148q-98 -8 -188.5 -42t-158 -93.5t-107.5 -144.5t-40 -195l2 -11h11v-8v-8l260 -16q0 143 66.5 215.5t211.5 72.5h29q14 0 29 -2v-389q-133 -12 -262.5 -42.5t-229.5 -96.5 h-516v-39zM618 82q0 61 34 105t89.5 76t124 53.5t140.5 33.5v-456q-66 -16 -129 -17q-49 0 -97.5 11.5t-85.5 37.5q-35 25 -55.5 64t-20.5 92zM1042 -94v452q61 10 116.5 17.5t96.5 11.5h13l2 -154v-24q0 -12 -2 -25q-16 -104 -76 -173.5t-150 -104.5zM1042 569v383 q111 -14 168.5 -72.5t57.5 -197.5v-98q-51 -4 -109 -7.5t-117 -7.5zM1090 1186h221v223h-221v-223z" />
<glyph unicode="&#xe5;" d="M-2 387h1008v-1005h36v1005h1008v39h-1008v1006h-36v-1006h-1008v-39z" />
<glyph unicode="&#xe6;" d="M-2 387h408l-398 -674h318l190 338h490v-669h36v331h945v250h-711v371h598v53h176v39h-178v145h-596v326h692v250h-926v285h-36v-285h-156l-422 -721h-430v-39zM647 289l55 98h304v-98h-359zM725 426l279 496h2v-496h-281z" />
<glyph unicode="&#xe7;" d="M-2 387h440l-121 -57l17 -35l141 72l152 -76l145 76l152 -76l82 41v-107l-84 -41l-148 74l-149 -74l-150 74l-158 -80l17 -35l141 76l152 -78l145 78l152 -78l82 43v-802h36v821l31 16l144 -76l141 -2v-182l358 428h334v39h-338l-354 426v-225h-129l-156 80l-31 -15v740 h-36v-760l-84 -41l-148 76l-149 -76l-150 76l-158 -82l17 -31l141 72l152 -74l145 74l152 -74l82 39v-109l-84 -39l-148 72l-149 -72l-150 72l-158 -78l17 -33l141 70l152 -74l145 74l152 -74l82 39v-53h-1008v-39zM512 387h225l-112 -53zM811 387h195v-14l-84 -39z M1042 244v108l31 15l144 -72l141 -2v-113h-129l-156 78zM1042 426v74l31 14l144 -70l141 -2v-16h-316zM1042 541v110l31 15l144 -72l141 -2v-111h-129l-156 74zM1110 387h248v-57h-129z" />
<glyph unicode="&#xe8;" d="M-2 387h803q-90 -57 -162 -135t-124 -171t-79.5 -199.5t-27.5 -219.5h221q0 98 27.5 187.5t76.5 165t119 136t154 97.5v-866h36v882q53 18 107.5 29.5t114.5 11.5l-2 -581l370 663h418v39h-422l-366 682v-582q-115 0 -220 -30v936h-36v-947q-37 -12 -71 -26.5t-69 -32.5 h-868v-39z" />
<glyph unicode="&#xe9;" d="M-2 387h356l584 -45l-805 -113l805 -12l-805 -164l873 25v-696h36v698l338 10l150 250l-119 -936l496 983h143v39h-145l-494 987l119 -936l-150 244l-338 10v701h-36v-701l-873 27l805 -164l-805 -12l805 -113l-535 -43h-405v-39z" />
<glyph unicode="&#xea;" d="M-240 289l17 -21q78 59 154.5 89t168.5 30h82q45 -6 88 -25.5t84 -41t84 -39t92 -17.5t92.5 17.5t85.5 39t84 41t89 25.5h55q33 -2 70 -16v-989h36v972q59 -29 118 -59.5t126 -30.5q111 0 198 29t177 94h4v-489l363 489h22v39h-25l-362 481v-481h-621v1006h-36v-1006 h-1008v-25q-63 -14 -121 -40.5t-117 -71.5zM276 387h510q-66 -29 -126 -62.5t-132 -33.5q-35 0 -66.5 10t-62 24.5t-61.5 31t-62 30.5zM1042 383v4h576q-78 -53 -156 -75.5t-178 -22.5q-66 0 -124.5 32.5t-117.5 61.5z" />
<glyph unicode="&#xeb;" d="M-2 387h428q-43 -14 -84 -47l8 -8q29 23 58.5 35t62.5 20h137q41 -14 77 -35.5t81 -21.5t81 21.5t77 35.5h82v-45q-20 4 -33 4q-29 0 -54.5 -10t-50 -23.5t-50 -23.5t-54.5 -10t-53.5 10t-49 22.5t-49 23.5t-53.5 11q-61 0 -114.5 -15.5t-102.5 -51.5l8 -15 q47 35 98.5 51.5t110.5 16.5q29 0 53.5 -11.5t49 -23.5t49 -23.5t53.5 -11.5t54.5 11.5t51 23.5t51 23.5t54.5 11.5q10 0 31 -4v-946h36v931q35 -16 68 -33.5t72 -17.5q119 0 211 72l-9 10q-47 -35 -96 -51.5t-108 -16.5q-39 0 -71 17.5t-67 34.5v51q35 -14 68 -31.5 t72 -17.5q104 0 192 57h68l-150 -258q109 51 207 114.5t187 143.5h364v39h-367q-88 78 -185 140.5t-204 115.5l148 -256h-158q57 18 109 57l-9 15q-47 -39 -95 -54.5t-107 -15.5q-39 0 -72 16.5t-68 32.5v955h-36v-940q-20 4 -31 4q-29 0 -54.5 -10.5t-50 -22.5t-50 -22.5 t-54.5 -10.5t-54.5 9.5t-50 21.5t-50 23.5t-54.5 11.5q-59 0 -112.5 -15.5t-102.5 -52.5v-2h-344v-39zM367 426q45 29 91 40t101 13q41 0 76 -18.5t70 -34.5h-338zM643 387h246q-31 -14 -60.5 -27.5t-64.5 -13.5t-63.5 13.5t-57.5 27.5zM829 426q35 14 69 32.5t75 20.5 q12 0 33 -4v-49h-177zM1042 426v37q20 -10 40 -19.5t38 -17.5h-78zM1059 387h291q-74 -41 -168 -41q-35 0 -64.5 13.5t-58.5 27.5zM1393 399v2v-2z" />
<glyph unicode="&#xec;" d="M-2 387h797q23 -39 49 -71.5t50 -67.5t39 -76t15 -96q0 -68 -24.5 -126.5t-67.5 -101.5t-100.5 -67.5t-122.5 -24.5q-61 0 -120.5 23.5t-104.5 68.5l-70 -67q59 -59 138 -89t163 -30q123 0 219 62.5t148 164.5v-507h36v638q2 12 3.5 24.5t1.5 27.5q0 14 -1.5 27.5 t-3.5 25.5v262h1008v39h-1008v461q51 18 107 18q121 0 211 -80l-285 -247l594 172l-297 542l25 -370q-109 80 -246 79q-59 0 -109 -14v445h-36v-457q-117 -45 -192 -149.5t-75 -237.5q0 -49 8.5 -89t24.5 -73h-774v-39zM831 588q0 92 48.5 166.5t126.5 115.5v-444h-127 q-20 35 -34 73t-14 89zM907 387h99v-137q-23 41 -48.5 72.5t-50.5 64.5z" />
<glyph unicode="&#xed;" d="M-2 387h336l356 -428v225h131l156 -78l29 15v-739h36v757l86 41l146 -74l151 74l150 -74l156 80l-15 33l-141 -74l-152 76l-147 -76l-150 76l-84 -43v111l86 41l146 -74l151 74l150 -74l156 80l-15 33l-141 -72l-152 76l-147 -76l-150 76l-84 -43v57h1008v39h-434l115 57 l-15 33l-141 -70l-152 74l-147 -74l-150 74l-84 -41v107l86 41l146 -74l151 74l150 -74l156 80l-15 35l-141 -74l-152 76l-147 -76l-150 76l-84 -43v805h-36v-824l-29 -14l-143 74l-144 2v182l-356 -426h-336v-39zM690 221v111h131l156 -76l29 14v-110l-29 -15l-143 74z M690 371v16h316v-76l-29 -14l-143 72zM690 426v57h131l115 -57h-246zM690 518v113h131l156 -78l29 14v-106l-29 -15l-143 70zM1042 426v12l86 41l105 -53h-191zM1317 426l108 53l107 -53h-215z" />
<glyph unicode="&#xee;" d="M-2 387h1008v-1005h36v1005h1008v39h-1008v1006h-36v-1006h-1008v-39z" />
<glyph unicode="&#xef;" d="M-2 387h588l-228 -10v-8l648 -31v-16l-648 -33v-6l648 -33v-17l-648 -30v-8l648 30v-843h36v845l211 11v10l-211 10v57l211 11v8l-211 10v43h295q-2 -147 -32.5 -300t-53.5 -300l430 600h369v39h-383l-416 584q20 -141 51 -290t35 -294h-184l-111 6v55l211 11v10l-211 10 v60l211 10v8l-211 10v826h-36v-824l-648 31v-10l648 -31v-16l-648 -31v-6l648 -33v-18l-648 -29v-8l613 -31h-973v-39zM432 285l574 28v-55zM432 547l574 28v-55zM434 371l352 16h220v-43zM434 459l572 26v-53zM1042 236v12l140 -6zM1042 324v12l140 -6zM1042 496v14l140 -8 zM1042 584v12l140 -6z" />
<glyph unicode="&#xf0;" d="M-2 387h524q-20 -74 -20 -164q0 -115 35.5 -211t101.5 -166.5t159 -110.5t208 -44v-309h36v309q125 2 219.5 47t158 120.5t95 178t31.5 223.5q0 35 -2 65.5t-6 61.5h512v39h-518q-31 188 -133.5 331.5t-261.5 270.5l188 102l-100 78l-183 -96v320h-36v-299q-33 23 -67 44 t-69 40l-198 -134q80 -33 145 -90l-178 -94l100 -78l183 97q18 -14 39.5 -30t44.5 -32v-98q-178 -6 -299 -95.5t-172 -236.5h-537v-39zM522 387q4 10 6 19.5t7 19.5h284q-6 -10 -12 -19.5t-10 -19.5h-275zM760 223q0 90 37 164h209v-473q-61 4 -107.5 31.5t-77 69.5 t-46 96.5t-15.5 111.5zM819 426q31 43 77 71.5t110 32.5v-104h-187zM1006 -86h18h18v-223h-16h-20v223zM1006 530v228h20h16v-228h-18h-18zM1006 856v277q6 -6 13 -12.5t15 -12.5l8 4v-289q-10 8 -18 16.5t-18 16.5zM1042 -86v473h209q37 -74 37 -166q0 -57 -15.5 -110.5 t-46 -95.5t-77 -69.5t-107.5 -31.5zM1042 426v104q63 -4 109.5 -31.5t77.5 -72.5h-187zM1042 758v65q29 -23 52.5 -46t42.5 -46l-4 -2q-20 12 -43 18.5t-48 10.5zM1229 426h303q2 -10 3 -19.5t3 -19.5h-287q-4 10 -10 19.5t-12 19.5z" />
<glyph unicode="&#xf1;" d="M-2 387h516v-86h492v-919h36v919h492v86h516v39h-516v76h-492v930h-36v-930h-492v-76h-516v-39z" />
<glyph unicode="&#xf2;" d="M-2 387h510q2 -100 43 -189t107.5 -157t155.5 -107.5t192 -44.5v-507h36v507q100 4 189.5 45t157 108t107.5 156t44 189h510v39h-991q-8 12 -17 14v224l482 239l-482 240v289h-36v-510q-100 -4 -189.5 -44t-156 -106.5t-107.5 -156t-45 -189.5h-510v-39zM545 387h438 q8 -18 23 -27v-438q-94 4 -176 42t-144.5 101.5t-99.5 146.5t-41 175zM545 426q4 92 41 174t99.5 144.5t144 99.5t176.5 41v-443q-12 -6 -19 -16h-442zM1042 -78v440q16 6 25 25h436q-4 -94 -41 -176t-99.5 -145.5t-144.5 -101.5t-176 -42z" />
<glyph unicode="&#xf3;" d="M-2 387h80l20 -18l19 18h577l64 -61l59 61h189v-1005h36v1005h332l37 -35h404l-146 -143l82 -82l260 260h39v39h-39l-262 264l-80 -82l141 -141h-352l-364 362l-52 -51v654h-36v-693l-252 -250l-334 336l-404 -376l23 -23h-41v-39zM158 426l256 242l241 -242h-497z M856 426l150 149v-149h-150zM1042 426v190l54 52l239 -242h-293z" />
<glyph unicode="&#xf4;" d="M-2 387h1008v-1005h36v794q47 -49 125 -71.5t138 -22.5q49 0 98 10t92 35l-213 -180l86 -90l313 311l-219 219h588v39h-627l-55 55l-51 -55h-119q10 16 15.5 31.5t5.5 34.5q0 27 -13.5 54t-35 51t-49 38t-54.5 14q-16 0 -25 -2v785h-36v-797q-27 -10 -51.5 -25.5t-48 -29 t-47 -23.5t-48.5 -10q-35 0 -57.5 26.5t-22.5 57.5q0 25 8.5 47t16.5 46t15 46.5t7 46.5q0 78 -55 128t-131 50q-53 0 -101.5 -23.5t-82.5 -60.5l38 -37q29 31 68 51.5t82 20.5q20 0 43 -7t41 -20.5t30.5 -32t12.5 -42.5q0 -25 -10.5 -50.5t-21.5 -51t-21.5 -52t-10.5 -55.5 q0 -31 13.5 -60.5t36 -53t50 -38t58.5 -14.5q27 0 51.5 10t47 23.5t45 28t45.5 22.5v-127h-1008v-39zM1042 369v18h15q-9 -12 -15 -18zM1042 426v135h2q25 0 45.5 -19.5t20.5 -45.5q0 -31 -27 -70h-41zM1126 299q0 23 14.5 44.5t30.5 43.5h113l160 -133q-31 -29 -72 -43 t-82 -14q-20 0 -48 6t-53.5 18t-44 31.5t-18.5 46.5z" />
<glyph unicode="&#xf5;" d="M-2 387h625h383v-1005h36v1005h82h709l-203 -203l41 -39l246 242h133v39h-115l-264 262l-41 -41l205 -203h-203l-256 131l-254 -124l-80 38v943h-36v-922l-134 65l-251 -124l-252 124l-267 -133l9 -16h-113v-39zM201 426l168 84l172 -84h-340zM702 426l170 84l134 -64 v-20h-304zM1042 426h2h-2zM1204 426l170 84l172 -84h-342z" />
<glyph unicode="&#xf6;" d="M-2 387h352q4 -141 51.5 -268t132 -223.5t203.5 -154.5t269 -63v-296h36v296q150 4 269 61.5t203.5 155t132 224.5t51.5 268h352v39h-352q0 145 -46 276.5t-130 231.5t-206 159.5t-274 63.5v275h-36v-275q-152 -4 -274 -63.5t-206 -159.5t-130 -231.5t-46 -276.5h-352 v-39zM627 387h379v-461q-96 4 -166 45t-116 104.5t-69.5 144.5t-27.5 167zM627 426q0 88 21.5 174t67.5 154.5t117.5 111.5t172.5 47v-487h-379zM758 1182h221v223h-221v-223zM1042 -74v461h377q-4 -86 -27.5 -167t-69.5 -145.5t-116 -104.5t-164 -44zM1042 426v487 q98 -4 170 -47t118 -110.5t67.5 -153.5t21.5 -176h-377zM1104 1182h223v223h-223v-223z" />
<glyph unicode="&#xf7;" d="M-2 387h516v-80h492v-155q-55 -8 -95.5 -51.5t-40.5 -100.5t40 -100t96 -52v-466h36v466q55 8 95.5 51.5t40.5 100.5t-40 100t-96 52v155h492v80h516v39h-516v82h-492v156q55 8 95.5 52t40.5 99v2q0 55 -40 98t-96 52v465h-36v-465q-55 -8 -95.5 -51.5t-40.5 -100.5 t40 -101t96 -50v-156h-492v-82h-516v-39z" />
<glyph unicode="&#xf8;" d="M-2 387h342q4 -92 27.5 -182t70.5 -172v-2l-143 -127l129 -133l123 108q90 -96 208.5 -147t250.5 -56v-294h36v294q150 2 272 60.5t208 155t135 224.5t55 271h338v39h-338v4q0 104 -23.5 206.5t-74.5 194.5l139 125l-127 134l-121 -109q-92 98 -211.5 148.5t-251.5 54.5 v248h-36v-248q-156 -4 -279 -66.5t-209 -165t-132 -237.5t-46 -285v-4h-342v-39zM618 426v4q0 92 23 180t70 159t119.5 116t175.5 49v-391l-132 -117h-256zM621 387h210l-182 -162q-26 80 -28 162zM737 53h2l267 236v-359q-78 4 -148 34t-121 89zM1042 -70v394l72 63h313 q-4 -86 -28.5 -166t-71.5 -143.5t-118 -103.5t-167 -44zM1042 578v356q78 -4 146.5 -33t120.5 -88zM1157 426l242 215q31 -102 31 -211v-4h-273z" />
<glyph unicode="&#xf9;" d="M-2 387h989q6 -10 19 -16v-224l-484 -239l484 -242v-284h36v507q100 4 189.5 44t157 108t107.5 157t44 189h510v39h-510q-4 100 -44 189.5t-106.5 156t-156.5 106.5t-191 44v510h-36v-510q-102 -4 -190.5 -45t-156 -108t-107.5 -155t-44 -188h-510v-39zM545 426 q4 92 41 175t99.5 144.5t144 99.5t176.5 42v-436q-16 -10 -23 -25h-438zM1042 -76v447q10 6 19 16h442q-4 -94 -41 -176t-99.5 -144.5t-144.5 -100.5t-176 -42zM1042 453v434q94 -4 176 -42t144.5 -99.5t99.5 -144.5t41 -175h-438q-5 21 -23 27z" />
<glyph unicode="&#xfa;" d="M-2 387h121l258 -256l41 41l-205 203h203l254 -131l254 125l82 -41v-946h36v927l134 -65l251 125l252 -125l267 133l-7 10h111v39h-131v2l-4 -2h-473l-17 8l-16 -8h-367v1006h-36v-1006h-68l-16 8l-17 -8h-471l-4 2l-217 2l205 205l-41 41l-252 -250h-127v-39zM512 387 h315l-155 -78zM1042 375v12h289l-155 -78zM1520 387h317l-158 -78z" />
<glyph unicode="&#xfb;" d="M-2 387h715l125 -53l108 53h60v-1005h36v1005h254l119 -51l221 51h80l-102 -172l207 172h229v39h-223l-160 192l66 -192h-486l-137 59l-68 -32v979h-36v-998l-15 -8h-334l-131 55l-237 -55h-291v-39zM360 426l166 39l95 -39h-261zM748 387h165l-75 -39zM1042 426v10 l68 31l96 -41h-164zM1335 387h238l-156 -37z" />
<glyph unicode="&#xfc;" d="M-2 387h457v-240q0 -119 46 -205.5t122.5 -144t176 -87t206.5 -32.5v-296h36v296q106 2 206 32t176.5 87.5t122.5 144.5t46 205v240h457v39h-457v696h-266v-696h-285v1006h-36v-1006h-285v696h-264l-2 -696h-457v-39zM721 215v172h285v-453q-139 4 -212 69t-73 212z M750 1157h221v223h-221v-223zM1042 -66v453h285v-172q0 -147 -73 -212t-212 -69zM1096 1157h221v223h-221v-223z" />
<glyph unicode="&#xfd;" d="M-2 387h793l120 -221v-453h95v-331h36v331h88v453l123 221h797v39h-776l248 448h-246l-234 -438v461l224 225h-224v310h-36v-310h-5l-180 -284h164l21 20v-430l-236 446h-244l244 -448h-772v-39z" />
<glyph unicode="&#xfe;" d="M-2 387h1008v-1005h36v1005h1008v39h-1008v1006h-36v-1006h-1008v-39zM535 -612h245v424h4q53 -68 125 -95.5t156 -27.5q109 0 192.5 46t140 121.5t86 171t29.5 193.5q0 96 -28.5 192.5t-85 173.5t-138 124t-188.5 47q-80 0 -155.5 -30t-135.5 -85l-2 2v502h-245v-1759z M772 223q0 57 12.5 112.5t41 98.5t74.5 69.5t114 26.5t114 -26.5t74.5 -69.5t40.5 -99t12 -114v2q0 -59 -12 -114.5t-40.5 -98.5t-75 -69.5t-113.5 -26.5q-68 0 -114 26.5t-74.5 69.5t-41 98.5t-12.5 114.5z" />
<glyph unicode="&#xff;" d="M-2 387h793l120 -221v-453h95v-331h36v331h88v453l123 221h797v39h-776l248 448h-246l-234 -438v996h-36v-1004l-236 446h-244l244 -448h-772v-39zM741 1030h222v221h-222v-221zM1087 1030h224v221h-224v-221z" />
<glyph unicode="&#x152;" d="M-2 387h68q6 -139 51 -266t127 -225.5t199.5 -158t269.5 -59.5q78 0 152.5 21.5t135.5 69.5v-56h5v-331h36v331h940v250h-712v371h598v53h182v39h-182v145h-598v326h674v250h-902v285h-36v-285h-5v-47q-66 45 -138 64.5t-150 19.5q-152 0 -271.5 -65.5t-202.5 -172 t-128 -242t-45 -274.5v-4h-68v-39zM346 387h655v-309q0 -49 -24.5 -79t-61 -47.5t-80.5 -22.5t-81 -5h-2q-102 0 -176 39t-123.5 103.5t-76 148.5t-30.5 172zM346 426q0 94 23.5 184t73 161t125 115t182.5 44q39 0 83 -12.5t80.5 -36t61 -58.5t24.5 -80v-317h-653z" />
<glyph unicode="&#x153;" d="M-2 387h68q6 -139 51 -266t127 -225.5t199.5 -158t269.5 -59.5q78 0 152.5 21.5t135.5 69.5v-56h5v-331h36v331h940v250h-712v371h598v53h182v39h-182v145h-598v326h674v250h-902v285h-36v-285h-5v-47q-66 45 -138 64.5t-150 19.5q-152 0 -271.5 -65.5t-202.5 -172 t-128 -242t-45 -274.5v-4h-68v-39zM346 387h655v-309q0 -49 -24.5 -79t-61 -47.5t-80.5 -22.5t-81 -5h-2q-102 0 -176 39t-123.5 103.5t-76 148.5t-30.5 172zM346 426q0 94 23.5 184t73 161t125 115t182.5 44q39 0 83 -12.5t80.5 -36t61 -58.5t24.5 -80v-317h-653z" />
<glyph unicode="&#x178;" d="M-2 387h827l68 -123v-551h113v-331h36v331h115v551l66 123h827v39h-805l381 696h-297l-287 -542v852h-36v-857l-289 547h-295l381 -696h-805v-39zM739 1157h224v223h-224v-223zM1087 1157h224v223h-224v-223z" />
<glyph unicode="&#x2c6;" d="M696 856h185l143 176l143 -176h185l-215 291h-226z" />
<glyph unicode="&#x2dc;" d="M668 866h114q10 41 33 64.5t68 23.5q33 0 67.5 -11t70.5 -26.5t72.5 -27.5t77.5 -12q45 0 82 21.5t63.5 56t42 77.5t21.5 84h-114q-10 -41 -33 -64.5t-68 -23.5q-35 0 -68.5 12.5t-69.5 27.5t-74 27.5t-76 12.5q-47 0 -83 -22.5t-62.5 -57.5t-42 -78t-21.5 -84z" />
<glyph unicode="&#x2013;" d="M-2 387h522v-96h486v-909h36v909h486v96h522v39h-522v90h-486v916h-36v-916h-486v-90h-522v-39z" />
<glyph unicode="&#x2014;" d="M-2 387h20v-106h988v-899h36v899h990v106h18v39h-20v80h-988v926h-36v-926h-990v-80h-18v-39z" />
<glyph unicode="&#x2018;" d="M-2 387h1008v-1005h36v1005h1008v39h-1008v162h119v276h-119v84q8 35 37 54.5t66 23.5l2 121q-55 -6 -105 -25v310h-36v-328q-53 -27 -86 -72t-31 -114l2 -330h115v-162h-1008v-39z" />
<glyph unicode="&#x2019;" d="M-2 387h1008v-1005h36v1005h1008v39h-1008v203q51 27 84 71.5t33 114.5v332h-117v285h-36v-285h-117v-279h117v-75q-6 -39 -35 -59.5t-68 -24.5v-121q53 6 103 24v-186h-1008v-39z" />
<glyph unicode="&#x201a;" d="M-2 387h1008v-395h-117v-279h117v-75q-6 -39 -35 -59.5t-68 -24.5v-123q53 6 103 24v-73h36v92q51 27 84 71.5t33 114.5v332h-117v395h1008v39h-1008v1006h-36v-1006h-1008v-39z" />
<glyph unicode="&#x201c;" d="M-2 387h1008v-1005h36v1005h1008v39h-1008v1006h-36v-1006h-1008v-39zM715 588h270v276h-117v64q0 47 31 70.5t72 27.5v121q-49 -6 -95.5 -22.5t-82 -43t-57 -67.5t-21.5 -96v-330zM1063 588h270v276h-116v64q0 47 30.5 70.5t71.5 27.5v121q-49 -6 -95 -22.5t-82 -43 t-57.5 -67.5t-21.5 -96v-330z" />
<glyph unicode="&#x201d;" d="M-2 387h1008v-1005h36v1005h1008v39h-1008v1006h-36v-1006h-1008v-39zM713 868h116v-61q0 -47 -30.5 -70.5t-71.5 -27.5v-121q49 6 95 21.5t82 42t57.5 67.5t21.5 96v332h-270v-279zM1061 868h117v-61q0 -47 -31 -70.5t-72 -27.5v-121q49 6 96.5 21.5t83 42t57 67.5 t21.5 96l-2 332h-270v-279z" />
<glyph unicode="&#x201e;" d="M-2 387h1008v-1005h36v1005h1008v39h-1008v1006h-36v-1006h-1008v-39zM713 -8v-279h116v-61q0 -47 -30.5 -70.5t-71.5 -27.5v-123q49 6 95 22.5t82 43t57.5 67.5t21.5 96v332h-270zM1061 -8v-279h117v-61q0 -47 -31 -70.5t-72 -27.5v-123q49 6 96.5 22.5t83 43t57 67.5 t21.5 96l-2 332h-270z" />
<glyph unicode="&#x2022;" d="M-2 387h670q8 -63 37.5 -118.5t74.5 -98.5t102.5 -68.5t123.5 -29.5v-690h36v690q66 4 124.5 29.5t103.5 68.5t73.5 98.5t36.5 118.5h670v39h-668l2 4q0 70 -27.5 133.5t-73.5 112.5t-108.5 78.5t-132.5 33.5v644h-36v-644q-72 -4 -133.5 -34.5t-107.5 -78.5 t-72.5 -111.5t-26.5 -133.5v-4h-668v-39z" />
<glyph unicode="&#x2026;" d="M-2 387h1008v-395h-117v-279h117v-331h36v331h117v279h-117v395h1008v39h-1008v1006h-36v-1006h-1008v-39zM217 -8v-279h270v279h-270zM1559 -8v-279h272v279h-272z" />
<glyph unicode="&#x2039;" d="M-2 387h883v-131l125 -98v-776h36v745l127 -98v233l-127 105v20h1008v39h-1008v14l127 105v233l-127 -98v752h-36v-783l-127 -98v-125h-881v-39z" />
<glyph unicode="&#x203a;" d="M-2 387h1008v-20l-127 -105v-233l127 98v-745h36v776l127 98v131h881v39h-883v125l-125 98v783h-36v-752l-127 98v-233l127 -105v-14h-1008v-39z" />
<glyph unicode="&#x2122;" d="M-2 387h391v-70h191v70h360v-70h66v-935h36v935h74v70h209l25 -70h137l24 70h209v-70h178v70h152v39h-152v721h-268l-209 -567l-213 567h-166v285h-36v-285h-66v-721h-360v567h239v154h-669v-154h239v-567h-391v-39zM1116 426v520h4l191 -520h-195zM1526 426l190 520h4 v-520h-194z" />
<glyph unicode="&#xe000;" horiz-adv-x="1430" d="M0 1430h1430v-1430h-1430v1430z" />
<glyph unicode="&#xfb01;" horiz-adv-x="4096" d="M2046 387h891v-463h-314v-215h431v-327h36v327h431v215h-314v463h891v39h-891v506h314v215h-431v285h-36v-285h-431v-215h314v-506h-891v-39zM-2 387h555v-674h270v604h183v-935h36v935h369v70h639v39h-639v129h-369v342h453v250h-453v285h-36v-285h-453v-721h-555v-39z M823 555v342h183v-342h-183z" />
<glyph unicode="&#xfb02;" horiz-adv-x="4096" d="M2046 387h600v-674h408v-331h36v331h408v250h-408v424h1008v39h-1008v1006h-36v-1006h-138v721h-270v-721h-600v-39zM2916 -37v424h138v-424h-138zM-2 387h555v-674h270v604h183v-935h36v935h369v70h639v39h-639v129h-369v342h453v250h-453v285h-36v-285h-453v-721h-555 v-39zM823 555v342h183v-342h-183z" />
<glyph unicode="&#xfb03;" horiz-adv-x="6144" d="M4094 387h891v-463h-314v-215h431v-327h36v327h431v215h-314v463h891v39h-891v506h314v215h-431v285h-36v-285h-431v-215h314v-506h-891v-39zM2046 387h555v-674h270v604h183v-935h36v935h369v70h639v39h-639v129h-369v342h453v250h-453v285h-36v-285h-453v-721h-555v-39 zM2871 555v342h183v-342h-183zM-2 387h555v-674h270v604h183v-935h36v935h369v70h639v39h-639v129h-369v342h453v250h-453v285h-36v-285h-453v-721h-555v-39zM823 555v342h183v-342h-183z" />
<glyph unicode="&#xfb04;" horiz-adv-x="6144" d="M4094 387h600v-674h408v-331h36v331h408v250h-408v424h1008v39h-1008v1006h-36v-1006h-138v721h-270v-721h-600v-39zM4964 -37v424h138v-424h-138zM2046 387h555v-674h270v604h183v-935h36v935h369v70h639v39h-639v129h-369v342h453v250h-453v285h-36v-285h-453v-721 h-555v-39zM2871 555v342h183v-342h-183zM-2 387h555v-674h270v604h183v-935h36v935h369v70h639v39h-639v129h-369v342h453v250h-453v285h-36v-285h-453v-721h-555v-39zM823 555v342h183v-342h-183z" />
</font>
</defs>
</svg>
